<?xml version="1.0" encoding="UTF-8" standalone="no"?>
<!-- Created with Inkscape (http://www.inkscape.org/) -->

<svg
   width="800"
   height="50"
   viewBox="0 0 211.664 13.229"
   version="1.1"
   id="svg30434"
   inkscape:version="1.1.2 (0a00cf5339, 2022-02-04)"
   sodipodi:docname="bottom_0.svg"
   xmlns:inkscape="http://www.inkscape.org/namespaces/inkscape"
   xmlns:sodipodi="http://sodipodi.sourceforge.net/DTD/sodipodi-0.dtd"
   xmlns="http://www.w3.org/2000/svg"
   xmlns:svg="http://www.w3.org/2000/svg">
  <sodipodi:namedview
     id="namedview30436"
     pagecolor="#ffffff"
     bordercolor="#cccccc"
     borderopacity="1"
     inkscape:pageshadow="0"
     inkscape:pageopacity="1"
     inkscape:pagecheckerboard="0"
     inkscape:document-units="px"
     showgrid="false"
     units="px"
     inkscape:zoom="0.68875"
     inkscape:cx="400"
     inkscape:cy="24.682396"
     inkscape:window-width="1366"
     inkscape:window-height="714"
     inkscape:window-x="0"
     inkscape:window-y="22"
     inkscape:window-maximized="1"
     inkscape:current-layer="layer1" />
  <defs
     id="defs30431" />
  <g
     inkscape:label="Layer 1"
     inkscape:groupmode="layer"
     id="layer1">
    <g
       id="g30794"
       transform="matrix(0.35277332,0,0,-0.35277332,-211.3854,23.270045)"
       style="fill:#a96821;fill-opacity:1">
      <path
         d="M 964.981,62.5398 C 914.864,62.5289 899.21,31.8832 899.21,31.8832 c 0,0 -15.653,30.6457 -65.754,30.6566 50.117,-0.0109 65.754,-11.6828 65.754,-11.6828 0,0 15.637,11.6719 65.771,11.6828"
         style="fill:#a96821;fill-opacity:1;fill-rule:nonzero;stroke:none;stroke-width:0.1"
         id="path19372" />
      <g
         id="g30662"
         style="fill:#a96821;fill-opacity:1">
        <path
           d="m 645.077,59.6762 c 0.986,-1.184 2.632,-1.9852 3.975,-2.6481 4.983,-2.4601 10.572,-3.7019 16.017,-4.616 11.395,-1.9109 23.052,-2.2109 34.58,-2.0012 19.967,0.3621 39.892,2.4582 59.659,5.1969 24.636,3.4141 49.237,6.3902 74.148,6.4281 0.648,0.0012 0.65,1.009 0,1.0082 -20.817,-0.032 -41.599,-1.898 -62.212,-4.7269 -21.338,-2.927 -42.639,-5.8172 -64.182,-6.6801 -12.649,-0.507 -25.441,-0.4969 -38.009,1.1879 -6.167,0.827 -12.519,1.993 -18.255,4.5 -1.675,0.7332 -3.818,1.6332 -5.008,3.0641 -0.416,0.4988 -1.126,-0.218 -0.713,-0.7129"
           style="fill:#a96821;fill-opacity:1;fill-rule:nonzero;stroke:none;stroke-width:0.1"
           id="path19368" />
        <path
           d="m 964.981,62.0359 c 21.707,-0.0339 43.379,-2.048 64.859,-5.0968 20.95,-2.975 41.96,-5.6161 63.13,-6.3711 12.42,-0.4418 24.97,-0.3551 37.3,1.3699 6.08,0.85 12.29,2.0512 17.93,4.5461 1.72,0.7582 3.9,1.6992 5.14,3.1922 0.42,0.4949 -0.29,1.2117 -0.71,0.7129 -0.95,-1.1461 -2.56,-1.8993 -3.88,-2.5461 -5.01,-2.4469 -10.66,-3.6442 -16.13,-4.536 -11.64,-1.9019 -23.56,-2.1257 -35.33,-1.8582 -20.51,0.4692 -40.98,2.7051 -61.28,5.6082 -23.55,3.3692 -47.203,5.95 -71.029,5.9871 -0.648,8e-4 -0.649,-1.007 0,-1.0082"
           style="fill:#a96821;fill-opacity:1;fill-rule:nonzero;stroke:none;stroke-width:0.1"
           id="path19370" />
        <path
           d="m 964.981,63.0441 c -23.445,-0.0871 -48.961,-7.364 -63.596,-26.9269 -0.945,-1.2621 -1.888,-2.5742 -2.61,-3.9793 0.29,0 0.58,0 0.871,0 -2.054,3.9953 -5.325,7.5621 -8.532,10.6383 -8.176,7.841 -18.434,13.2687 -29.26,16.4468 -9.214,2.7051 -18.815,3.786 -28.398,3.8211 0,-0.3359 0,-0.6722 0,-1.0082 14.668,-0.025 29.478,-0.864 43.857,-3.925 6.549,-1.3929 13.25,-3.175 19.228,-6.2718 0.822,-0.425 1.669,-0.8629 2.415,-1.4172 0.129,-0.0957 0.379,-0.0957 0.509,0 2.373,1.7601 5.378,2.8742 8.115,3.8851 9.404,3.4731 19.458,5.2102 29.388,6.3071 9.301,1.0281 18.66,1.407 28.013,1.4218 0.649,0.0012 0.65,1.009 0,1.0082 -14.761,-0.025 -29.667,-0.882 -44.138,-3.9609 -6.587,-1.4012 -13.293,-3.2133 -19.321,-6.2953 -0.829,-0.425 -1.666,-1.132 -2.525,-1.466 0.335,0.1301 0.612,-0.1887 0.174,0.1722 -0.364,0.3 -0.84,0.52 -1.25,0.7489 -5.155,2.8851 -11.014,4.6172 -16.717,6.0129 -15.561,3.807 -31.782,4.7613 -47.748,4.7882 -0.648,8e-4 -0.649,-1.005 0,-1.0082 23.129,-0.0859 48.573,-7.2488 62.912,-26.7 0.869,-1.1777 1.736,-2.4007 2.407,-3.707 0.169,-0.3289 0.702,-0.3289 0.871,0 1.964,3.8231 5.061,7.2203 8.115,10.184 8.014,7.7801 18.112,13.1742 28.774,16.348 9.228,2.7461 18.839,3.8403 28.446,3.875 0.649,0.0032 0.65,1.011 0,1.0082"
           style="fill:#a96821;fill-opacity:1;fill-rule:nonzero;stroke:none;stroke-width:0.1"
           id="path19374" />
      </g>
    </g>
  </g>
</svg>
