<?xml version="1.0" encoding="UTF-8" standalone="no"?>
<!-- Created with Inkscape (http://www.inkscape.org/) -->

<svg
   version="1.1"
   id="svg2"
   xml:space="preserve"
   width="500"
   height="500"
   viewBox="0 0 500 500"
   sodipodi:docname="codigo_v.svg"
   inkscape:version="1.1.2 (0a00cf5339, 2022-02-04)"
   xmlns:inkscape="http://www.inkscape.org/namespaces/inkscape"
   xmlns:sodipodi="http://sodipodi.sourceforge.net/DTD/sodipodi-0.dtd"
   xmlns:xlink="http://www.w3.org/1999/xlink"
   xmlns="http://www.w3.org/2000/svg"
   xmlns:svg="http://www.w3.org/2000/svg"><defs
     id="defs6"><clipPath
       clipPathUnits="userSpaceOnUse"
       id="clipPath16"><path
         d="M 0,1200 H 1200 V 0 H 0 Z"
         id="path14" /></clipPath><clipPath
       clipPathUnits="userSpaceOnUse"
       id="clipPath3880"><rect
         style="fill:url(#linearGradient3884);fill-opacity:1;stroke:none;stroke-width:1.37263;stroke-linecap:round;stroke-linejoin:round;stroke-miterlimit:4;stroke-dasharray:none;stroke-opacity:1;paint-order:fill markers stroke;stop-color:#000000"
         id="rect3882"
         width="65.241463"
         height="374.10931"
         x="-209.34111"
         y="-243.5937"
         ry="4.250833"
         rx="4.5890565"
         transform="scale(-1,1)" /></clipPath><clipPath
       id="XMLID_5_"><use
         xlink:href="#XMLID_16772_"
         style="overflow:visible"
         id="use17"
         x="0"
         y="0"
         width="100%"
         height="100%" /></clipPath><clipPath
       id="clipPath2003"><use
         xlink:href="#XMLID_16772_"
         style="overflow:visible"
         id="use2001"
         x="0"
         y="0"
         width="100%"
         height="100%" /></clipPath><clipPath
       id="clipPath2007"><use
         xlink:href="#XMLID_16772_"
         style="overflow:visible"
         id="use2005"
         x="0"
         y="0"
         width="100%"
         height="100%" /></clipPath><clipPath
       id="clipPath2011"><use
         xlink:href="#XMLID_16772_"
         style="overflow:visible"
         id="use2009"
         x="0"
         y="0"
         width="100%"
         height="100%" /></clipPath><clipPath
       id="clipPath2015"><use
         xlink:href="#XMLID_16772_"
         style="overflow:visible"
         id="use2013"
         x="0"
         y="0"
         width="100%"
         height="100%" /></clipPath><polygon
       id="polygon14999"
       points="111.8,55.6 388.2,55.6 388.2,446.4 111.8,446.4 " /><polygon
       id="polygon15005"
       points="111.8,55.6 388.2,55.6 388.2,446.4 111.8,446.4 " /><clipPath
       clipPathUnits="userSpaceOnUse"
       id="clipPath582"><path
         d="M 0,800 H 800 V 0 H 0 Z"
         id="path580" /></clipPath></defs><sodipodi:namedview
     id="namedview4"
     pagecolor="#ffffff"
     bordercolor="#cccccc"
     borderopacity="1"
     inkscape:pageshadow="0"
     inkscape:pageopacity="1"
     inkscape:pagecheckerboard="0"
     showgrid="false"
     inkscape:zoom="1.012"
     inkscape:cx="249.50593"
     inkscape:cy="250"
     inkscape:window-width="1366"
     inkscape:window-height="714"
     inkscape:window-x="0"
     inkscape:window-y="22"
     inkscape:window-maximized="1"
     inkscape:current-layer="g8" /><g
     id="g8"
     inkscape:groupmode="layer"
     inkscape:label="133"
     transform="matrix(1.3333333,0,0,-1.3333333,0,1600)"><g
       id="g9407"
       transform="matrix(0.61030736,0,0,0.61030736,-41.805989,813.15377)"><g
         id="g9298"><g
           id="g236"
           transform="translate(514.4365,544.3809)"><path
             d="M 0,0 -8.417,-23.5 4,-28.584 l 6.333,7.75 11.75,4.834 10.084,11.666 c 0,0 -2.583,1.207 -5.25,0.479 -2.667,-0.729 -6.167,-4.312 -6.584,-4.312 -0.417,0 -11.5,10.417 -11.5,10.417 z"
             style="fill:#dead92;fill-opacity:1;fill-rule:nonzero;stroke:none"
             id="path238" /></g><g
           id="g240"
           transform="translate(499.2285,510.9912)"><path
             d="M 0,0 3.563,12.91 21.375,5.348 20.5,1.453 Z"
             style="fill:#f8faff;fill-opacity:1;fill-rule:nonzero;stroke:none"
             id="path242" /></g><g
           id="g244"
           transform="translate(544.8535,480.6797)"><path
             d="m 0,0 -38.333,-12.813 15,46.096 -23.334,-2.05 L -62.333,-27.55 -58,-35.217 H 2.833 Z"
             style="fill:#2b2b2b;fill-opacity:1;fill-rule:nonzero;stroke:none"
             id="path246" /></g><g
           id="g248"
           transform="translate(644.6865,321.3799)"><path
             d="m 0,0 -3.916,-11.417 v -12 c 0,0 2.417,0.166 3,1.75 0.583,1.584 2.083,5.917 2.083,5.917 v -24 c 0,0 1.666,0.667 3.416,3.667 1.75,3 13.666,14.749 14,16.666 0.334,1.917 -4.416,21.75 -4.416,21.75 z"
             style="fill:#f5d3ba;fill-opacity:1;fill-rule:nonzero;stroke:none"
             id="path250" /></g><g
           id="g252"
           transform="translate(643.3535,321.7764)"><path
             d="m 0,0 -1.75,-7.437 18.687,5.625 -0.999,3.749 z"
             style="fill:#f8faff;fill-opacity:1;fill-rule:nonzero;stroke:none"
             id="path254" /></g><g
           id="g256"
           transform="translate(650.1865,173.7969)"><path
             d="m 0,0 c 0,0 10.666,-15.333 17,-35.333 0,0 3.584,2.082 3.584,7.249 v 21.083 c 0,2.084 -3.5,6.833 -2.667,10.75 0.833,3.917 1.75,4.417 1.75,6.417 0,2 0.666,5.75 -1.417,5.75 H -0.583 Z"
             style="fill:#212121;fill-opacity:1;fill-rule:nonzero;stroke:none"
             id="path258" /></g><g
           id="g260"
           transform="translate(559.3955,116.7949)"><path
             d="m 0,0 c 0,0 -15.333,-10.666 -35.333,-17 0,0 2.082,-3.584 7.249,-3.584 h 21.083 c 2.084,0 6.833,3.5 10.75,2.667 3.917,-0.833 4.417,-1.75 6.417,-1.75 2,0 5.75,-0.666 5.75,1.417 V 0.583 Z"
             style="fill:#212121;fill-opacity:1;fill-rule:nonzero;stroke:none"
             id="path262" /></g><g
           id="g264"
           transform="translate(544.8535,353.4629)"><path
             d="m 0,0 12.697,-131.749 c 0,0 48.304,-18.417 93.97,-54.417 v 25.333 c 0,0 -32.166,26.666 -45.5,39.833 L 40.5,-118 29.333,39.167 7.168,28.167 Z"
             style="fill:#1a1a1a;fill-opacity:1;fill-rule:nonzero;stroke:none"
             id="path266" /></g><g
           id="g268"
           transform="translate(557.5508,373.1436)"><path
             d="m 0,0 v -257.18 h 18.636 c 0,0 10.5,63 10.5,68 0,5 -3.833,29.333 -3.833,29.333 l 20.666,78 z"
             style="fill:#212121;fill-opacity:1;fill-rule:nonzero;stroke:none"
             id="path270" /></g><g
           id="g272"
           transform="translate(565.9668,478.6455)"><path
             d="M 0,0 -8.09,-92.185 44.22,-8.236 Z"
             style="fill:#f8faff;fill-opacity:1;fill-rule:nonzero;stroke:none"
             id="path274" /></g><g
           id="g276"
           transform="translate(571.458,471.7949)"
           style="fill:#d8dbe3;fill-opacity:1"><path
             d="M 0,0 -2.563,-39.241 20.198,-5 Z"
             style="fill:#d8dbe3;fill-opacity:1;fill-rule:nonzero;stroke:none"
             id="path278" /></g><g
           id="g280"
           transform="translate(570.248,480.6797)"><path
             d="m 0,0 -12.061,-106.55 -13.334,-20.667 V 0 Z"
             style="fill:#2b2b2b;fill-opacity:1;fill-rule:nonzero;stroke:none"
             id="path282" /></g><g
           id="g284"
           transform="translate(564.1035,456.2139)"><path
             d="M 0,0 -5.25,18.333 4,26.25 H 6.583 L 3.375,0 Z"
             style="fill:#212121;fill-opacity:1;fill-rule:nonzero;stroke:none"
             id="path286" /></g><g
           id="g288"
           transform="translate(570.248,478.6455)"><path
             d="m 0,0 8.811,-12.744 c 0,0 12.232,3.301 20.607,12.744 L 17.98,18.131 Z"
             style="fill:#f5d3ba;fill-opacity:1;fill-rule:nonzero;stroke:none"
             id="path290" /></g><g
           id="g292"
           transform="translate(568.1035,481.7139)"><path
             d="m 0,0 c 0,0 2.625,-3.688 5.875,-8.563 0,0 12.75,8.438 14.25,23.188 z"
             style="fill:#dead92;fill-opacity:1;fill-rule:nonzero;stroke:none"
             id="path294" /></g><g
           id="g296"
           transform="translate(559.5205,524.2969)"><path
             d="m 0,0 c 0,0 -2.666,-8.666 -2.833,-9.5 -0.167,-0.834 -0.084,-3.021 -0.521,-4.208 -0.438,-1.188 -5.125,-9.375 -5.125,-10.438 0,-1.062 2.937,-3.25 3.187,-3.937 0.25,-0.688 0.063,-1.406 -0.125,-2.063 -0.187,-0.656 -0.344,-1.187 -0.094,-1.375 0.25,-0.187 1.438,-1.156 1.75,-1.375 0,0 -0.406,-1.687 -0.312,-2.062 0.094,-0.375 1.531,-1.031 1.906,-1.781 0.375,-0.75 0.594,-5.094 0.844,-5.782 0.25,-0.687 6.531,-1.781 11.781,-0.906 5.25,0.875 12.5,7.134 14.875,10.551 2.375,3.417 5.291,5 6.208,13.417 0.917,8.417 2.708,18.668 -5.75,21.834 C 17.333,5.541 5.959,7.625 0,0"
             style="fill:#f5d3ba;fill-opacity:1;fill-rule:nonzero;stroke:none"
             id="path298" /></g><g
           id="g300"
           transform="translate(574.8535,520.3799)"><path
             d="m 0,0 v -5.25 c 0,-0.917 4.667,-4.751 4.667,-6.084 v -5.25 l 2.5,-0.583 3.416,4.75 3.167,-12.417 6.25,-10 c 0,0 7.999,13.5 9.166,20.417 C 30.333,-7.5 28.499,1.001 24.083,3.167 19.667,5.333 6.583,5.583 0,0"
             style="fill:#575757;fill-opacity:1;fill-rule:nonzero;stroke:none"
             id="path302" /></g><g
           id="g304"
           transform="translate(559.1318,523.0303)"><path
             d="m 0,0 c 0,0 -2.278,6.183 -0.695,9.933 1.583,3.75 15.501,9.75 25.917,6.75 10.416,-3 21.75,-13.446 29.583,-10.181 0,0 -3.916,-7.819 -10.083,-8.069 0,0 0.916,-1.916 2.083,-1.916 0,0 -1.999,-0.917 -4.083,-0.667 -2.084,0.25 -12.25,4.501 -26.917,-0.583 0,0 -3.193,6.466 -15.805,4.733"
             style="fill:#2b2b2b;fill-opacity:1;fill-rule:nonzero;stroke:none"
             id="path306" /></g><g
           id="g308"
           transform="translate(585.4365,507.9629)"><path
             d="M 0,0 C 0,0 2.5,4.376 5.792,3.917 9.084,3.458 8.875,-1.75 8.417,-4.375 7.959,-7 6.708,-9.292 5.75,-10.167 4.792,-11.042 2.291,-12.874 1.5,-12.333 0.709,-11.792 -1.417,-4.5 0,0"
             style="fill:#f5d3ba;fill-opacity:1;fill-rule:nonzero;stroke:none"
             id="path310" /></g><g
           id="g324"
           transform="translate(596.582,483.5342)"><path
             d="m 0,0 2.323,-3.684 -46.884,-104.719 c 0,0 36.082,-83.417 93.832,-153.417 l -13,111.25 -28.49,39.5 35.365,79 c 0,0 -27.167,21.765 -43.146,32.07"
             style="fill:#2b2b2b;fill-opacity:1;fill-rule:nonzero;stroke:none"
             id="path326" /></g><g
           id="g328"
           transform="translate(583.54,467.5146)"><path
             d="m 0,0 6.647,-10.427 9.584,21.558 z"
             style="fill:#d8dbe3;fill-opacity:1;fill-rule:nonzero;stroke:none"
             id="path330" /></g><g
           id="g332"
           transform="translate(563.585,400.959)"><path
             d="M 0,0 34.269,36.38 28.534,63.735 Z"
             style="fill:#212121;fill-opacity:1;fill-rule:nonzero;stroke:none"
             id="path334" /></g><g
           id="g336"
           transform="translate(591.875,450.2139)"><path
             d="m 0,0 15.562,17.416 -3.074,12.5 -8.756,4.949 3.08,-4.949 -9.658,-22.338 z"
             style="fill:#212121;fill-opacity:1;fill-rule:nonzero;stroke:none"
             id="path338" /></g><g
           id="g340"
           transform="translate(568.8955,468.7275)"><path
             d="m 0,0 -14.376,-17.597 6.664,-50.528 z"
             style="fill:#212121;fill-opacity:1;fill-rule:nonzero;stroke:none"
             id="path342" /></g><g
           id="g344"
           transform="translate(570.248,478.6455)"><path
             d="m 0,0 -2.019,-16.474 9.053,6.299 z"
             style="fill:#d8dbe3;fill-opacity:1;fill-rule:nonzero;stroke:none"
             id="path346" /></g><g
           id="g348"
           transform="translate(639.7285,451.4639)"><path
             d="M 0,0 35.75,-75.625 20.25,-129 2.25,-131.5 11.792,-79 -20,-33.75 c 0,0 0.5,19 20,33.75"
             style="fill:#2b2b2b;fill-opacity:1;fill-rule:nonzero;stroke:none"
             id="path350" /></g><g
           id="g352"
           transform="translate(538.0205,445.4629)"><path
             d="M 0,0 6.833,31.833 V 0 Z"
             style="fill:#212121;fill-opacity:1;fill-rule:nonzero;stroke:none"
             id="path354" /></g><g
           id="g356"
           transform="translate(622.7158,413.4619)"><path
             d="M 0,0 -5.862,8.377 -2.631,-5.878 Z"
             style="fill:#212121;fill-opacity:1;fill-rule:nonzero;stroke:none"
             id="path358" /></g><g
           id="g372"
           transform="translate(511.9609,537.4697)"><path
             d="M 0,0 7.893,-7 23.059,5 v 5.917 c 0,0 5.416,-3.167 6.25,-3.25 0.834,-0.083 3.917,0.917 3.917,1.5 C 33.226,9.75 19.81,19.668 18.81,19.584 18.068,19.521 7.205,11.307 1.635,7.062 -0.309,5.581 0,0 0,0"
             style="fill:#f5d3ba;fill-opacity:1;fill-rule:nonzero;stroke:none"
             id="path374" /></g></g><g
         id="g576"><g
           id="g578"
           clip-path="url(#clipPath582)"><g
             id="g584"
             transform="translate(193.9941,273.5605)"><path
               d="m 0,0 11.138,-43.25 80.5,-60.417 c 0,0 -3.641,10.448 -5.832,14.833 -2.668,5.334 -11,15.5 -11,15.5 0,0 -9.334,3.332 -14.334,5.666 -5,2.334 -28.334,55.5 -28.334,55.5 z"
               style="fill:#dead92;fill-opacity:1;fill-rule:nonzero;stroke:none"
               id="path586" /></g><g
             id="g588"
             transform="translate(247.5234,125.6484)"><path
               d="m 0,0 h -8.392 -8.39 l -4.61,-10.755 c 0,0 4,-14.166 13,-17.833 9,3.667 12.334,17.833 12.334,17.833 z"
               style="fill:#ffac48;fill-opacity:1;fill-rule:nonzero;stroke:none"
               id="path590" /></g><g
             id="g592"
             transform="translate(219.1318,270.0605)"><path
               d="m 0,0 c 0,0 9.75,-31.25 12,-43.25 2.25,-12 3.75,-84 3.75,-88 0,-4 -5.875,-16.75 -5.875,-18.125 0,-1.375 7.25,-10.625 9.875,-10.625 2.625,0 9.977,8 9.801,10.625 -0.176,2.625 -3.584,14.483 -3.426,17.875 1.375,29.5 12.625,54.75 12.625,66.5 0,11.75 -6,21.75 -6,24.75 C 32.75,-37.25 40,0 40,0 Z"
               style="fill:#f5d3ba;fill-opacity:1;fill-rule:nonzero;stroke:none"
               id="path594" /></g><g
             id="g596"
             transform="translate(80.7158,396.5605)"><path
               d="m 0,0 3.416,-6.621 15.417,-3.129 6,12 L 9,5.5 Z"
               style="fill:#dead92;fill-opacity:1;fill-rule:nonzero;stroke:none"
               id="path598" /></g><g
             id="g600"
             transform="translate(174.7988,432.5605)"><path
               d="m 0,0 -7.833,-9.917 -57,-20.75 -19.667,4.334 -14.333,-10.168 c 0,0 3.333,-1.833 6.083,-0.583 2.75,1.25 5.749,3.332 6.833,3.416 1.084,0.084 6.75,-1.249 6.75,-1.666 0,-0.417 -3.5,-1.956 -4.166,-2.187 -0.667,-0.23 -5.584,0 -6.25,0 -0.667,0 -2.584,-1.146 -2.417,-2.063 0.167,-0.917 5.667,-1.834 9.5,-2.667 3.833,-0.833 11.167,0 11.167,0 0,0 8.249,3.751 8.916,3.917 0.667,0.166 65.584,10.001 67.417,10.667 1.833,0.666 18.028,21.125 18.028,21.125 z"
               style="fill:#f5d3ba;fill-opacity:1;fill-rule:nonzero;stroke:none"
               id="path602" /></g><g
             id="g604"
             transform="translate(294.2568,502.2275)"><path
               d="m 0,0 -11.563,-16.104 -9.812,12.875 0.596,6.333 z"
               style="fill:#dead92;fill-opacity:1;fill-rule:nonzero;stroke:none"
               id="path606" /></g><g
             id="g608"
             transform="translate(255.2998,436.0605)"><path
               d="M 0,0 33.166,-34 27.499,15.167 3.283,38.5 Z"
               style="fill:#ffac48;fill-opacity:1;fill-rule:nonzero;stroke:none"
               id="path610" /></g><g
             id="g612"
             transform="translate(192.1318,474.5605)"><path
               d="m 0,0 -31,-44.666 c 0,0 12.273,-5.834 33.387,-10.334 z"
               style="fill:#ff8d48;fill-opacity:1;fill-rule:nonzero;stroke:none"
               id="path614" /></g><g
             id="g616"
             transform="translate(192.1318,474.5605)"><path
               d="M 0,0 -10.832,-33.666 3.667,-93.25 -109.166,-192.334 c 0,0 11.441,-24.562 46.666,-16.667 38.667,8.667 45.334,7 87.949,-8 39.405,-13.87 90.718,-7 123.051,38 L 49.5,-93.25 76.57,-27.5 66.451,0 47.625,9.705 H 23.332 Z"
               style="fill:#ffac48;fill-opacity:1;fill-rule:nonzero;stroke:none"
               id="path618" /></g><g
             id="g620"
             transform="translate(223.2568,473.0605)"
             style="fill:#ffac48;fill-opacity:1"><path
               d="m 0,0 c 0,0 -2.458,-5.501 -13.458,-5.501 -11,0 -8.833,11.543 -1.625,14.46 3.083,1.458 5.696,2.619 11.417,4.75 9.043,0.898 20.083,-1.459 20.083,-1.459 L 26.25,7.167 C 28.43,-1.333 24.043,-5.168 14.209,-5.501 4.375,-5.834 0,0 0,0"
               style="fill:#ffac48;fill-opacity:1;fill-rule:nonzero;stroke:none"
               id="path622" /></g><g
             id="g624"
             transform="translate(261.54,429.6641)"><path
               d="M 0,0 -9.604,9.396 -2.252,-5.469 Z"
               style="fill:#ff8d48;fill-opacity:1;fill-rule:nonzero;stroke:none"
               id="path626" /></g><g
             id="g628"
             transform="translate(243.7568,488.6855)"><path
               d="m 0,0 c 0,0 -2.125,-1.625 -6.875,-10.375 l -13.625,-5.25 -9.875,6.75 10.922,23.375 z"
               style="fill:#f5d3ba;fill-opacity:1;fill-rule:nonzero;stroke:none"
               id="path630" /></g><g
             id="g632"
             transform="translate(243.7568,488.6855)"><path
               d="M 0,0 -19.453,14.5 -21.996,9.059 C -16.531,-2.398 -6.6,-9.872 -6.6,-9.872 l 0.003,10e-4 C -2.047,-1.578 0,0 0,0"
               style="fill:#dead92;fill-opacity:1;fill-rule:nonzero;stroke:none"
               id="path634" /></g><g
             id="g636"
             transform="translate(265.5693,529.998)"><path
               d="M 0,0 C 0,0 6.625,-4.437 5,-12.5 4.109,-16.922 0.125,-20.312 -6.281,-20.062 L -6.986,-3.928 Z"
               style="fill:#ff8d48;fill-opacity:1;fill-rule:nonzero;stroke:none"
               id="path638" /></g><g
             id="g640"
             transform="translate(260.8818,525.123)"><path
               d="m 0,0 0.687,-12.313 c 0,0 -7.062,-27.562 -8.812,-29.125 0,0 -15.75,2.313 -23.938,12.188 -8.187,9.875 -4.125,23.375 3.313,31.125 C -21.312,9.625 -2.375,10.438 0,0"
               style="fill:#f5d3ba;fill-opacity:1;fill-rule:nonzero;stroke:none"
               id="path642" /></g><g
             id="g644"
             transform="translate(261.5693,512.8105)"><path
               d="m 0,0 c 0,0 -1.625,-1.246 -1.906,-2.889 -0.282,-1.642 -2.656,-11.736 -2.656,-11.736 l 0.087,-1.914 c 0,0 4.256,15.383 4.475,16.539"
               style="fill:#dead92;fill-opacity:1;fill-rule:nonzero;stroke:none"
               id="path646" /></g><g
             id="g648"
             transform="translate(259.8193,512.3105)"><path
               d="m 0,0 1.75,-11.313 c 0,0 -1.313,-2.187 -4.563,-2.812 z"
               style="fill:#f5d3ba;fill-opacity:1;fill-rule:nonzero;stroke:none"
               id="path650" /></g><g
             id="g652"
             transform="translate(260.9131,524.5693)"><path
               d="m 0,0 c 0.447,-0.327 9.594,3.741 7.469,13.741 0,0 -7.375,11.5 -26.625,11.25 -19.25,-0.25 -28.125,-8 -31.125,-17.375 -3,-9.375 -2.625,-11.875 -7.5,-14.25 -4.875,-2.375 -10.875,-6.5 -7.75,-15.875 -2.25,-5.5 2.5,-10.5 8.5,-7.625 -1.375,-7.25 6.398,-14 13.699,-7.625 4.176,-3.5 10.801,-2.125 13.176,0.5 2.375,2.625 2.261,6.563 0.693,8.063 -1.568,1.5 -2.256,4.937 0.369,5.312 2.625,0.375 6.875,-0.375 7.438,2.938 0.562,3.312 -3.813,6.125 -2.063,8.312 1.75,2.188 4.813,-1.375 7.563,1.875 2.75,3.25 -0.188,5.75 -0.938,7.688 C -17.844,-1.134 -11.281,8.259 0,0"
               style="fill:#ffac48;fill-opacity:1;fill-rule:nonzero;stroke:none"
               id="path654" /></g><g
             id="g664"
             transform="translate(272.5264,436.3145)"><path
               d="m 0,0 -0.645,-5.629 c 0,0 7.856,-19.687 16.584,-28.625 0,0 6.051,17.582 6.051,35.499 z"
               style="fill:#ff8d48;fill-opacity:1;fill-rule:nonzero;stroke:none"
               id="path666" /></g><g
             id="g672"
             transform="translate(195.7988,381.3105)"
             style="fill:#ff8d48;fill-opacity:1"><path
               d="m 0,0 h 45.833 l 3.055,7.417 H -1.805 Z"
               style="fill:#ff8d48;fill-opacity:1;fill-rule:nonzero;stroke:none"
               id="path674" /></g><g
             id="g676"
             transform="translate(270.8271,509.9219)"><path
               d="m 0,0 c 0,0 -2.18,-11.549 -2.125,-12.236 0.055,-0.688 6.055,-16.188 6.055,-16.188 0,0 -2.25,-43.312 -2.25,-45.937 0,-2.625 6.75,-12.375 12.25,-12.375 5.5,0 10,10.75 9.75,15.125 -0.25,4.375 -10,50.375 -10,50.375 L 3.055,-10.424 c 0,0 -0.374,4.021 -0.416,6.271 C 2.597,-1.903 1.902,-0.181 0,0"
               style="fill:#f5d3ba;fill-opacity:1;fill-rule:nonzero;stroke:none"
               id="path678" /></g><g
             id="g680"
             transform="translate(280.1318,513.7695)"><path
               d="m 0,0 c 0,0 -7.874,-6.541 -8.041,-6.875 -0.167,-0.334 0.166,-1.873 0.458,-2.354 0.292,-0.48 8.959,-7.604 10.292,-7.646 1.333,-0.042 11.416,5.333 11.416,5.333 v 3.021 z"
               style="fill:#f5d3ba;fill-opacity:1;fill-rule:nonzero;stroke:none"
               id="path682" /></g><g
             id="g684"
             transform="translate(265.9033,201.2842)"><path
               d="m 0,0 c 0,0 4.062,1.275 4.896,1.275 h 3.167 l 10.249,-6.333 -0.916,-1.583 -6.75,1.083 c 0,0 1.667,-5.416 2.417,-6.083 0.75,-0.667 8.416,-6.417 9.333,-7.834 0.916,-1.417 3.833,-11.917 3.166,-20.167 0,0 -6.986,6.686 -11.951,12.843 0,0 2.368,3.407 -0.048,9.574 C 11.146,-11.058 3.521,-2.442 0,0"
               style="fill:#ff8d48;fill-opacity:1;fill-rule:nonzero;stroke:none"
               id="path686" /></g></g></g></g></g></svg>
