<?xml version="1.0" encoding="UTF-8" standalone="no"?>
<!-- Created with Inkscape (http://www.inkscape.org/) -->

<svg
   width="50"
   height="50"
   viewBox="0 0 13.229167 13.229167"
   version="1.1"
   id="svg5"
   inkscape:version="1.1.2 (0a00cf5339, 2022-02-04)"
   sodipodi:docname="crown.svg"
   xmlns:inkscape="http://www.inkscape.org/namespaces/inkscape"
   xmlns:sodipodi="http://sodipodi.sourceforge.net/DTD/sodipodi-0.dtd"
   xmlns:xlink="http://www.w3.org/1999/xlink"
   xmlns="http://www.w3.org/2000/svg"
   xmlns:svg="http://www.w3.org/2000/svg">
  <sodipodi:namedview
     id="namedview7"
     pagecolor="#ffffff"
     bordercolor="#cccccc"
     borderopacity="1"
     inkscape:pageshadow="0"
     inkscape:pageopacity="1"
     inkscape:pagecheckerboard="0"
     inkscape:document-units="px"
     showgrid="false"
     units="px"
     width="600px"
     inkscape:zoom="2.53"
     inkscape:cx="23.715415"
     inkscape:cy="29.644269"
     inkscape:window-width="1366"
     inkscape:window-height="714"
     inkscape:window-x="0"
     inkscape:window-y="22"
     inkscape:window-maximized="1"
     inkscape:current-layer="layer1" />
  <defs
     id="defs2">
    <clipPath
       id="XMLID_5_">
      <use
         xlink:href="#XMLID_16772_"
         style="overflow:visible"
         id="use17"
         x="0"
         y="0"
         width="100%"
         height="100%" />
    </clipPath>
    <clipPath
       id="clipPath6875">
      <use
         xlink:href="#XMLID_16772_"
         style="overflow:visible"
         id="use6873"
         x="0"
         y="0"
         width="100%"
         height="100%" />
    </clipPath>
    <clipPath
       id="clipPath6879">
      <use
         xlink:href="#XMLID_16772_"
         style="overflow:visible"
         id="use6877"
         x="0"
         y="0"
         width="100%"
         height="100%" />
    </clipPath>
    <clipPath
       id="clipPath6883">
      <use
         xlink:href="#XMLID_16772_"
         style="overflow:visible"
         id="use6881"
         x="0"
         y="0"
         width="100%"
         height="100%" />
    </clipPath>
    <clipPath
       id="clipPath6887">
      <use
         xlink:href="#XMLID_16772_"
         style="overflow:visible"
         id="use6885"
         x="0"
         y="0"
         width="100%"
         height="100%" />
    </clipPath>
    <polygon
       id="polygon14676"
       points="111.8,446.4 111.8,55.6 388.2,55.6 388.2,446.4 " />
    <polygon
       id="polygon15913"
       points="111.8,446.4 111.8,55.6 388.2,55.6 388.2,446.4 " />
    <clipPath
       clipPathUnits="userSpaceOnUse"
       id="clipPath13492">
      <rect
         style="fill:#ffff00;fill-opacity:1;stroke:none;stroke-width:1.31484;stroke-linecap:round;stroke-linejoin:round;stroke-miterlimit:4;stroke-dasharray:none;stroke-opacity:1;paint-order:fill markers stroke;stop-color:#000000"
         id="rect13494"
         width="125.61568"
         height="178.28725"
         x="-235.19518"
         y="-43.098331"
         ry="4.250833"
         rx="4.5890565"
         transform="scale(-1,1)" />
    </clipPath>
  </defs>
  <g
     inkscape:label="Layer 1"
     inkscape:groupmode="layer"
     id="layer1">
    <g
       id="g2728"
       transform="matrix(0.11562374,0,0,-0.11562374,-22.25197,56.616526)">
      <g
         id="g78"
         transform="translate(248.8457,457.061)"
         style="fill:#a86821;fill-opacity:1">
        <path
           d="m 0,0 -7.6,-12.871 c -0.331,-0.559 -0.275,-1.429 0.057,-1.978 l 7.486,-12.672 c 0.407,-0.691 1.249,-0.833 1.684,-0.095 l 7.609,12.871 c 0.323,0.558 0.266,1.42 -0.066,1.969 L 1.685,-0.104 C 1.277,0.587 0.435,0.738 0,0 m 0.813,-35.48 c -0.274,0 -0.539,-0.01 -0.813,-0.01 -0.199,0 -0.37,0.104 -0.474,0.275 l -12.038,20.375 c -0.283,0.483 -0.397,1.392 -0.104,1.884 L 0.34,8.972 c 0.104,0.17 0.275,0.274 0.473,0.274 0.199,0 0.37,-0.104 0.474,-0.274 l 12.852,-21.748 c 0.019,-0.029 0.028,-0.048 0.038,-0.076 0.256,-0.473 0.274,-0.975 0.189,-1.486 0,-0.019 -0.01,-0.038 -0.01,-0.057 -0.028,-0.094 -0.066,-0.189 -0.113,-0.274 L 2.101,-35.215 c -0.105,-0.171 -0.275,-0.275 -0.474,-0.275 -0.273,0 -0.539,0.01 -0.814,0.01"
           style="fill:#a86821;fill-opacity:1;fill-rule:evenodd;stroke:none"
           id="path80" />
      </g>
      <g
         id="g82"
         transform="translate(241.8042,443.9346)">
        <path
           d="m 0,0 7.448,12.473 c 0.227,0.379 0.615,0.332 0.871,-0.094 L 15.654,0.095 c 0.255,-0.427 0.283,-1.089 0.056,-1.458 L 8.262,-13.836 c -0.227,-0.379 -0.615,-0.341 -0.87,0.085 L 0.057,-1.458 C -0.199,-1.032 -0.227,-0.379 0,0"
           style="fill:#e56a27;fill-opacity:1;fill-rule:evenodd;stroke:none"
           id="path84" />
      </g>
      <g
         id="g86"
         transform="translate(243.7632,443.7642)">
        <path
           d="M 0,0 5.593,9.36 C 5.764,9.644 6.057,9.615 6.247,9.293 l 5.507,-9.227 c 0.19,-0.321 0.208,-0.814 0.038,-1.088 l -5.593,-9.37 c -0.161,-0.283 -0.454,-0.246 -0.653,0.076 L 0.038,-1.098 C -0.151,-0.776 -0.17,-0.284 0,0"
           style="fill:#c92b2b;fill-opacity:1;fill-rule:evenodd;stroke:none"
           id="path88" />
      </g>
      <g
         id="g90"
         transform="translate(244.7759,445.458)">
        <path
           d="m 0,0 4.126,6.918 4.95,-8.252 c 0.123,-0.218 0.132,-0.559 0,-0.767 L 5.394,-8.262 C 5.271,-8.47 5.073,-8.47 4.94,-8.252 Z"
           style="fill:#ff3d3d;fill-opacity:1;fill-rule:evenodd;stroke:none"
           id="path92" />
      </g>
      <g
         id="g94"
         transform="translate(246.4512,445.3066)">
        <path
           d="M 0,0 2.129,3.559 C 2.186,3.672 2.3,3.653 2.375,3.54 L 4.467,0.028 C 4.543,-0.095 4.543,-0.284 4.486,-0.388 L 2.356,-3.946 C 2.29,-4.05 2.186,-4.041 2.11,-3.918 L 0.019,-0.417 C -0.057,-0.293 -0.066,-0.104 0,0"
           style="fill:#ff7f7f;fill-opacity:1;fill-rule:evenodd;stroke:none"
           id="path96" />
      </g>
      <g
         id="g98"
         transform="translate(286.4365,428.4419)"
         style="fill:#a86821;fill-opacity:1">
        <path
           d="m 0,0 c -1.486,0.937 -1.959,3.436 -1.523,5.073 0.7,2.659 4.106,2.678 6.169,2.233 1.184,-0.265 2.916,-1.277 4.108,-2.773 1.154,-1.448 1.902,-3.454 1.344,-6.028 -0.89,-4.108 -4.041,-7.051 -7.429,-8.3 -4.648,-1.704 -10.193,-0.455 -10.571,5.441 1.655,1.505 3.075,3.351 4.106,5.49 C -3.189,-0.681 -1.912,-2.243 0,-2.745 1.173,-3.057 2.564,-2.943 4.126,-2.224 8.205,-0.681 6.53,3.265 4.637,3.151 2.744,3.047 2.669,1.505 1.911,0.426 1.173,-0.634 0.047,-0.028 0,0 m -18.086,7.022 c -2.498,0.89 -3.587,4.515 -3.161,6.975 0.653,3.757 5.253,4.24 8.14,3.871 1.618,-0.208 4.059,-1.363 5.848,-3.246 1.722,-1.808 2.962,-4.429 2.508,-7.94 -0.682,-5.3 -4.269,-9.673 -8.887,-11.84 -3.417,-1.599 -7.722,-2.092 -10.93,-0.161 -2.036,1.212 -3.521,3.388 -3.919,6.644 l 5.045,8.546 c 0.795,-2.621 2.64,-5.016 5.469,-5.508 1.6,-0.275 3.446,0.085 5.49,1.382 3.387,1.807 1.883,6.88 -1.419,5.792 -0.748,-0.246 -1.241,-1.543 -1.904,-3.038 -0.775,-1.751 -2.27,-1.486 -2.28,-1.477 m -31.647,8.367 12.956,21.918 12.852,-21.748 c 0.227,-0.379 0.227,-0.786 0.16,-1.193 -0.018,-0.047 -0.037,-0.095 -0.056,-0.132 L -36.777,-7.694 -49.629,14.054 c -0.199,0.331 -0.284,1.031 -0.104,1.335 M -72.03,5.073 C -71.595,3.445 -72.059,0.965 -73.554,0 c 0,0 -1.154,-0.653 -1.912,0.426 -0.757,1.079 -0.833,2.621 -2.725,2.725 -1.893,0.114 -3.568,-3.832 0.51,-5.375 1.562,-0.719 2.944,-0.833 4.127,-0.521 1.911,0.502 3.189,2.064 3.795,3.881 1.031,-2.139 2.451,-3.985 4.107,-5.49 -0.369,-5.896 -5.924,-7.145 -10.571,-5.441 -3.388,1.249 -6.54,4.192 -7.429,8.3 -0.558,2.574 0.189,4.58 1.343,6.028 1.203,1.496 2.934,2.508 4.108,2.773 2.063,0.445 5.48,0.426 6.171,-2.233 m 11.583,12.795 c 2.896,0.369 7.487,-0.114 8.139,-3.871 0.379,-2.158 -0.388,-5.101 -2.224,-6.473 -0.283,-0.218 -0.596,-0.388 -0.937,-0.502 0,0 -1.495,-0.274 -2.281,1.477 -0.662,1.495 -1.154,2.792 -1.901,3.038 -3.304,1.088 -4.808,-3.985 -1.42,-5.792 2.044,-1.297 3.889,-1.657 5.498,-1.382 2.821,0.492 4.676,2.887 5.461,5.508 l 5.044,-8.546 c -0.397,-3.256 -1.883,-5.432 -3.918,-6.644 -4.391,-2.631 -10.742,-0.804 -14.536,2.47 -2.489,2.158 -4.392,4.959 -5.13,8.622 -0.766,3.757 0.322,6.71 2.357,8.849 1.788,1.883 4.23,3.038 5.848,3.246 m 21.853,21.369 -12.72,-21.53 c -2.29,2.622 -6.464,3.066 -9.455,2.688 -2.101,-0.275 -5.148,-1.685 -7.372,-4.013 -1.788,-1.893 -3.17,-4.457 -3.293,-7.751 -2.045,1.599 -5.111,1.638 -7.297,1.164 -1.646,-0.359 -3.965,-1.675 -5.565,-3.681 -1.58,-1.969 -2.602,-4.695 -1.845,-8.149 0.009,-0.047 0.018,-0.104 0.037,-0.161 -1.514,-1.854 -5.687,-8.158 -0.397,-15.852 0.397,-0.577 1.192,-0.719 1.77,-0.322 0.577,0.398 0.729,1.193 0.322,1.77 -3.445,5.016 -1.978,9.246 -0.644,11.49 2.508,-5.101 8.13,-8.272 13.458,-7.903 4.06,0.284 7.363,2.65 8.262,6.862 2.764,-1.818 6.028,-2.906 9.218,-2.963 4.949,-0.075 9.246,2.357 10.931,7.268 l 4.486,-7.599 c 0.955,-1.628 2.858,-1.666 3.738,-0.17 l 4.6,7.769 c 0.889,-2.592 2.479,-4.457 4.485,-5.659 4.741,-2.829 11.092,-1.646 15.653,1.354 0.9,-4.212 4.202,-6.578 8.263,-6.862 5.328,-0.369 10.949,2.802 13.458,7.903 1.334,-2.244 2.801,-6.474 -0.645,-11.49 -0.406,-0.577 -0.254,-1.372 0.323,-1.77 0.577,-0.397 1.372,-0.255 1.769,0.322 5.291,7.694 1.117,13.998 -0.387,15.852 0.009,0.057 0.018,0.114 0.028,0.161 0.757,3.454 -0.265,6.18 -1.846,8.149 C 9.142,8.12 6.823,9.436 5.187,9.795 2.99,10.269 -0.076,10.23 -2.12,8.631 c -0.123,3.294 -1.505,5.858 -3.293,7.751 -2.225,2.328 -5.272,3.738 -7.373,4.013 -2.99,0.378 -7.164,-0.066 -9.454,-2.688 l -12.615,21.36 c -0.957,1.619 -2.859,1.666 -3.739,0.17"
           style="fill:#a86821;fill-opacity:1;fill-rule:evenodd;stroke:none"
           id="path100" />
      </g>
      <g
         id="g102"
         transform="translate(284.7988,432.9375)"
         style="fill:#a86821;fill-opacity:1">
        <path
           d="m 0,0 c -0.085,0.7 -0.038,1.4 0.114,1.987 0.7,2.659 4.107,2.669 6.17,2.224 1.184,-0.255 2.915,-1.268 4.108,-2.773 1.003,-1.249 1.704,-2.934 1.504,-5.025 0.067,-0.738 0.029,-1.543 -0.161,-2.404 -0.889,-4.107 -4.041,-7.051 -7.428,-8.3 -4.648,-1.703 -10.194,-0.454 -10.572,5.442 0.057,0.047 0.114,0.104 0.17,0.151 -0.085,0.398 -0.141,0.814 -0.17,1.25 1.656,1.514 3.076,3.35 4.107,5.489 0.606,-1.808 1.884,-3.379 3.796,-3.88 1.173,-0.304 2.564,-0.199 4.126,0.529 1.457,0.549 2.176,1.401 2.423,2.272 -0.275,0.984 -1.07,1.741 -1.913,1.694 C 4.382,-1.448 4.307,-2.991 3.549,-4.07 2.811,-5.13 1.685,-4.524 1.638,-4.496 0.312,-3.663 -0.198,-1.6 0,0 m -19.666,9.095 c -0.057,0.634 -0.038,1.249 0.057,1.807 0.653,3.767 5.253,4.25 8.139,3.871 1.618,-0.199 4.06,-1.363 5.849,-3.237 C -4.013,9.842 -2.83,7.467 -3.038,4.315 -3,3.644 -3.019,2.934 -3.113,2.186 -3.795,-3.114 -7.382,-7.486 -12,-9.653 c -3.417,-1.6 -7.723,-2.092 -10.931,-0.161 -2.035,1.211 -3.52,3.388 -3.919,6.644 l 0.181,0.312 c -0.076,0.35 -0.133,0.719 -0.181,1.097 l 5.045,8.546 c 0.795,-2.63 2.641,-5.025 5.47,-5.508 1.6,-0.283 3.445,0.076 5.489,1.373 1.07,0.567 1.647,1.467 1.846,2.394 -0.303,1.448 -1.543,2.565 -3.265,1.997 -0.748,-0.246 -1.24,-1.542 -1.903,-3.038 -0.775,-1.751 -2.27,-1.486 -2.28,-1.476 -2.357,0.842 -3.464,4.136 -3.218,6.568 m -28.43,3.198 12.956,21.929 12.853,-21.749 c 0.226,-0.378 0.226,-0.785 0.16,-1.202 -0.019,-0.047 -0.037,-0.094 -0.057,-0.132 l -0.075,-0.123 c 0.198,-0.36 0.189,-0.757 0.132,-1.145 -0.019,-0.048 -0.037,-0.095 -0.057,-0.133 L -35.14,-12.19 -47.992,9.559 c -0.198,0.331 -0.283,1.031 -0.104,1.334 l 0.076,0.123 c -0.17,0.35 -0.246,0.994 -0.076,1.277 M -70.393,1.987 c 0.161,-0.596 0.199,-1.296 0.114,-1.987 0.198,-1.6 -0.312,-3.644 -1.638,-4.496 0,0 -1.154,-0.652 -1.911,0.426 -0.757,1.079 -0.833,2.622 -2.726,2.726 -0.842,0.047 -1.637,-0.71 -1.911,-1.694 0.245,-0.871 0.965,-1.723 2.422,-2.272 1.562,-0.728 2.943,-0.833 4.126,-0.529 1.912,0.501 3.19,2.063 3.795,3.88 1.032,-2.139 2.452,-3.975 4.108,-5.489 -0.028,-0.436 -0.085,-0.852 -0.171,-1.25 0.058,-0.047 0.114,-0.104 0.171,-0.151 -0.369,-5.896 -5.924,-7.145 -10.571,-5.442 -3.389,1.249 -6.54,4.193 -7.43,8.3 -0.189,0.861 -0.227,1.666 -0.151,2.404 -0.199,2.091 0.492,3.776 1.495,5.025 1.202,1.505 2.934,2.518 4.108,2.773 2.063,0.445 5.48,0.435 6.17,-2.224 m 11.584,12.786 c 2.896,0.379 7.486,-0.104 8.139,-3.871 0.104,-0.568 0.123,-1.192 0.057,-1.836 0.208,-2.101 -0.568,-4.76 -2.281,-6.038 -0.284,-0.217 -0.596,-0.388 -0.937,-0.501 0,0 -1.495,-0.275 -2.281,1.476 -0.662,1.496 -1.154,2.792 -1.902,3.038 -1.722,0.568 -2.953,-0.549 -3.256,-1.997 0.19,-0.927 0.767,-1.827 1.836,-2.394 2.045,-1.297 3.89,-1.656 5.499,-1.373 2.82,0.483 4.675,2.878 5.461,5.508 l 5.044,-8.546 c -0.047,-0.378 -0.104,-0.747 -0.18,-1.097 l 0.18,-0.312 c -0.398,-3.256 -1.883,-5.433 -3.918,-6.644 -4.391,-2.631 -10.742,-0.805 -14.537,2.47 -2.489,2.157 -4.391,4.959 -5.129,8.621 -0.218,1.079 -0.284,2.092 -0.218,3.038 -0.199,2.991 0.842,5.395 2.574,7.221 1.789,1.874 4.231,3.038 5.849,3.237 m 21.852,19.969 -12.719,-21.531 c -2.29,2.622 -6.464,3.067 -9.455,2.688 -2.101,-0.274 -5.148,-1.685 -7.372,-4.012 -1.789,-1.893 -3.17,-4.458 -3.293,-7.751 -2.045,1.599 -5.111,1.637 -7.297,1.164 -1.647,-0.36 -3.966,-1.675 -5.565,-3.682 -1.098,-1.372 -1.921,-3.104 -2.072,-5.186 0.037,-0.502 0.104,-1.022 0.227,-1.552 0.009,-0.057 0.018,-0.114 0.037,-0.171 -0.066,-0.075 -0.132,-0.161 -0.208,-0.255 0.038,-0.322 0.095,-0.643 0.171,-0.984 0.009,-0.048 0.018,-0.104 0.037,-0.161 -0.908,-1.107 -2.763,-3.805 -2.981,-7.439 0.133,-2.11 0.852,-4.486 2.584,-7.003 0.397,-0.587 1.192,-0.729 1.77,-0.331 0.142,0.094 0.255,0.217 0.34,0.35 l -0.018,0.019 c -1.79,2.593 -2.253,4.987 -2.102,6.993 -0.189,2.508 0.663,4.562 1.458,5.896 2.508,-5.101 8.129,-8.271 13.457,-7.902 4.061,0.284 7.364,2.66 8.263,6.871 2.763,-1.826 6.028,-2.915 9.217,-2.962 4.95,-0.086 9.247,2.347 10.932,7.259 l 4.485,-7.6 c 0.956,-1.618 2.859,-1.666 3.739,-0.17 l 4.599,7.77 c 0.89,-2.593 2.48,-4.458 4.486,-5.66 4.741,-2.83 11.091,-1.637 15.653,1.363 0.899,-4.211 4.202,-6.587 8.263,-6.871 5.328,-0.369 10.949,2.801 13.458,7.902 0.803,-1.334 1.646,-3.388 1.457,-5.896 0.151,-2.006 -0.313,-4.4 -2.102,-6.993 l -0.018,-0.019 c 0.085,-0.133 0.198,-0.256 0.34,-0.35 0.578,-0.398 1.373,-0.256 1.77,0.331 1.732,2.517 2.451,4.893 2.584,7.003 -0.218,3.634 -2.073,6.332 -2.972,7.439 0.01,0.057 0.019,0.113 0.029,0.161 0.075,0.341 0.132,0.662 0.17,0.984 -0.067,0.094 -0.142,0.18 -0.199,0.255 0.01,0.057 0.019,0.114 0.029,0.171 0.123,0.53 0.198,1.05 0.226,1.552 C 14.3,-1.486 13.477,0.246 12.379,1.618 10.779,3.625 8.461,4.94 6.824,5.3 4.628,5.773 1.562,5.735 -0.482,4.136 c -0.123,3.293 -1.505,5.858 -3.293,7.751 -2.225,2.327 -5.272,3.738 -7.373,4.012 -2.991,0.379 -7.164,-0.066 -9.455,-2.688 l -12.615,21.361 c -0.956,1.618 -2.859,1.665 -3.739,0.17"
           style="fill:#a86821;fill-opacity:1;fill-rule:evenodd;stroke:none"
           id="path104" />
      </g>
      <g
         id="g106"
         transform="translate(242.5234,443.4331)">
        <path
           d="M 0,0 7.136,12.085 14.215,0.094 14.271,-0.36 7.136,-12.445 0.057,-0.464 Z M 5.849,13.902 -1.76,1.031 c -0.426,-0.719 -0.369,-1.798 0.066,-2.527 l 7.486,-12.672 c 0.663,-1.126 2.016,-1.145 2.631,-0.104 l 7.609,12.871 c 0.426,0.729 0.369,1.808 -0.056,2.536 L 8.489,13.808 c -0.662,1.116 -2.025,1.135 -2.64,0.094"
           style="fill:#f2b622;fill-opacity:1;fill-rule:evenodd;stroke:none"
           id="path108" />
      </g>
      <g
         id="g110"
         transform="translate(301.4746,407.7256)">
        <path
           d="m 0,0 c 1.6,-1.079 2.461,-2.224 2.461,-3.417 0,-3.189 -6.209,-6.076 -16.212,-8.148 -0.587,-0.123 -1.505,0.482 -0.274,0.946 C -6.331,-7.732 -1.192,-4.098 0,0"
           style="fill:#e56a27;fill-opacity:1;fill-rule:evenodd;stroke:none"
           id="path112" />
      </g>
      <g
         id="g114"
         transform="translate(197.8442,407.7256)">
        <path
           d="m 0,0 c -1.6,-1.079 -2.461,-2.224 -2.461,-3.417 0,-3.189 6.209,-6.076 16.212,-8.148 0.587,-0.123 1.505,0.482 0.274,0.946 C 6.331,-7.732 1.192,-4.098 0,0"
           style="fill:#e56a27;fill-opacity:1;fill-rule:evenodd;stroke:none"
           id="path116" />
      </g>
      <g
         id="g118"
         transform="translate(249.6592,422.1294)"
         style="fill:#a86821;fill-opacity:1">
        <path
           d="m 0,0 c 29.973,0 54.276,-7.978 54.276,-17.821 v -0.009 -0.009 c 0,-0.313 -0.066,-0.616 -0.18,-0.918 C 46.657,-11.631 25.25,-6.483 0,-6.483 c -25.25,0 -46.657,-5.148 -54.096,-12.274 -0.113,0.302 -0.18,0.605 -0.18,0.918 v 0.009 0.009 C -54.276,-7.978 -29.972,0 0,0"
           style="fill:#a86821;fill-opacity:1;fill-rule:evenodd;stroke:none"
           id="path120" />
      </g>
    </g>
  </g>
</svg>
