<?xml version="1.0" encoding="UTF-8" standalone="no"?>
<!-- Created with Inkscape (http://www.inkscape.org/) -->

<svg
   width="50"
   height="50"
   viewBox="0 0 13.229167 13.229167"
   version="1.1"
   id="svg5"
   inkscape:version="1.1.2 (0a00cf5339, 2022-02-04)"
   sodipodi:docname="pidove.svg"
   xmlns:inkscape="http://www.inkscape.org/namespaces/inkscape"
   xmlns:sodipodi="http://sodipodi.sourceforge.net/DTD/sodipodi-0.dtd"
   xmlns:xlink="http://www.w3.org/1999/xlink"
   xmlns="http://www.w3.org/2000/svg"
   xmlns:svg="http://www.w3.org/2000/svg">
  <sodipodi:namedview
     id="namedview7"
     pagecolor="#ffffff"
     bordercolor="#cccccc"
     borderopacity="1"
     inkscape:pageshadow="0"
     inkscape:pageopacity="1"
     inkscape:pagecheckerboard="0"
     inkscape:document-units="px"
     showgrid="false"
     units="px"
     width="600px"
     inkscape:zoom="4"
     inkscape:cx="14.5"
     inkscape:cy="37"
     inkscape:window-width="1366"
     inkscape:window-height="714"
     inkscape:window-x="0"
     inkscape:window-y="22"
     inkscape:window-maximized="1"
     inkscape:current-layer="layer1" />
  <defs
     id="defs2">
    <clipPath
       id="XMLID_5_">
      <use
         xlink:href="#XMLID_16772_"
         style="overflow:visible"
         id="use17"
         x="0"
         y="0"
         width="100%"
         height="100%" />
    </clipPath>
    <clipPath
       id="clipPath6875">
      <use
         xlink:href="#XMLID_16772_"
         style="overflow:visible"
         id="use6873"
         x="0"
         y="0"
         width="100%"
         height="100%" />
    </clipPath>
    <clipPath
       id="clipPath6879">
      <use
         xlink:href="#XMLID_16772_"
         style="overflow:visible"
         id="use6877"
         x="0"
         y="0"
         width="100%"
         height="100%" />
    </clipPath>
    <clipPath
       id="clipPath6883">
      <use
         xlink:href="#XMLID_16772_"
         style="overflow:visible"
         id="use6881"
         x="0"
         y="0"
         width="100%"
         height="100%" />
    </clipPath>
    <clipPath
       id="clipPath6887">
      <use
         xlink:href="#XMLID_16772_"
         style="overflow:visible"
         id="use6885"
         x="0"
         y="0"
         width="100%"
         height="100%" />
    </clipPath>
    <polygon
       id="polygon14676"
       points="111.8,446.4 111.8,55.6 388.2,55.6 388.2,446.4 " />
    <polygon
       id="polygon15913"
       points="111.8,446.4 111.8,55.6 388.2,55.6 388.2,446.4 " />
    <clipPath
       clipPathUnits="userSpaceOnUse"
       id="clipPath13492">
      <rect
         style="fill:#ffff00;fill-opacity:1;stroke:none;stroke-width:1.31484;stroke-linecap:round;stroke-linejoin:round;stroke-miterlimit:4;stroke-dasharray:none;stroke-opacity:1;paint-order:fill markers stroke;stop-color:#000000"
         id="rect13494"
         width="125.61568"
         height="178.28725"
         x="-235.19518"
         y="-43.098331"
         ry="4.250833"
         rx="4.5890565"
         transform="scale(-1,1)" />
    </clipPath>
  </defs>
  <g
     inkscape:label="Layer 1"
     inkscape:groupmode="layer"
     id="layer1">
    <g
       id="g981"
       transform="matrix(0.0017225,0,0,-0.0017225,-12.439593,30.366053)"
       style="fill:#a86821;fill-opacity:1">
      <path
         d="m 14287.6,14564.3 c -10.5,-7.5 -20.4,-15 -29.8,-22.6 -9.4,-7.6 -18.3,-15.3 -26.6,-22.9 -8.3,-7.6 -16.1,-15.2 -23.4,-22.6 -7.3,-7.5 -14.1,-14.8 -20.3,-22 2.1,6.2 4.2,12.4 6.3,18.7 2,6.2 4,12.5 6,18.7 1.9,6.3 3.8,12.6 5.7,18.8 1.8,6.3 3.5,12.6 5.2,18.9 9.1,36.4 16.9,73 23.2,109.8 6.3,36.8 11.2,73.7 14.5,110.7 3.3,37 5.1,74 5.2,111 0.1,37 -1.4,73.9 -4.7,110.6 -0.5,14.3 -1.3,26.6 -2.2,37.2 -0.9,10.5 -1.8,19.2 -2.7,26.3 -0.9,7.1 -1.6,12.5 -2,16.5 -0.5,3.9 -0.6,6.3 -0.1,7.4 0,0 -7.6,-7.2 -19.2,-20.8 -11.6,-13.5 -27.3,-33.5 -43.8,-58.9 -16.4,-25.5 -33.5,-56.4 -48,-92.1 -14.4,-35.6 -26.1,-75.9 -31.7,-120.1 -4.9,-38.6 -6.5,-73.2 -5.8,-103.9 0.8,-30.7 3.8,-57.4 8.2,-80.4 4.4,-23.1 10.1,-42.3 16.2,-58.1 6.1,-15.7 12.5,-27.9 18.2,-36.7 -6.8,-16.2 -14,-32.2 -21.6,-48 -7.5,-15.8 -15.4,-31.4 -23.7,-46.7 -8.3,-15.3 -16.9,-30.4 -25.9,-45.3 -9,-14.8 -18.4,-29.4 -28.2,-43.6 1.6,9.4 3.1,19.3 4.3,29.6 1.2,10.4 2.1,21.3 2.8,32.5 0.6,11.3 1,23 0.9,35.1 0,12.1 -0.4,24.6 -1.2,37.5 -2.3,33 -6.8,60.7 -12.4,83.6 -5.5,22.9 -12.3,41.1 -19,55 -6.7,13.9 -13.3,23.7 -18.9,30 -5.5,6.2 -9.9,8.9 -12,8.7 -2.2,-0.1 -6.9,-7.1 -12.8,-19.3 -5.9,-12.1 -13,-29.5 -19.9,-50.4 -6.9,-20.9 -13.5,-45.3 -18.6,-71.7 -5.1,-26.3 -8.5,-54.6 -9,-83.2 -0.4,-21.5 1.2,-41.1 4.1,-58.9 2.9,-17.8 7.2,-33.7 12.3,-47.9 5.1,-14.1 10.9,-26.4 17,-37 6.1,-10.5 12.3,-19.3 18.3,-26.3 -3.7,-4.2 -7.4,-8.4 -11.2,-12.6 -3.7,-4.1 -7.5,-8.2 -11.3,-12.3 -3.8,-4.1 -7.7,-8.1 -11.6,-12.1 -3.9,-4 -7.9,-7.9 -11.9,-11.8 -6.8,-6 -13.6,-11.9 -20.5,-17.8 -6.9,-5.9 -13.8,-11.7 -20.8,-17.5 -7,-5.7 -14,-11.4 -21.1,-17 -7.1,-5.6 -14.3,-11.1 -21.5,-16.5 -7.9,-4.8 -15.6,-9.5 -23.2,-14.3 -7.6,-4.7 -15.1,-9.4 -22.7,-14.2 -7.6,-4.7 -15.3,-9.5 -23.3,-14.3 -7.9,-4.8 -16.1,-9.7 -24.7,-14.6 -6.3,-3.6 -12.7,-7.3 -19,-11.1 -6.3,-3.7 -12.6,-7.5 -18.9,-11.3 -6.3,-3.8 -12.5,-7.7 -18.8,-11.6 -6.2,-3.9 -12.5,-7.8 -18.7,-11.8 -0.7,0.7 -1.5,1.3 -2.2,2 -0.7,0.7 -1.5,1.3 -2.2,2 -0.7,0.6 -1.5,1.3 -2.2,2 -0.7,0.6 -1.4,1.3 -2.2,1.9 -7.2,7 -14.5,14 -21.8,21.1 -7.2,7 -14.5,14.2 -21.6,21.4 -7,7.2 -14,14.4 -20.8,21.8 -6.8,7.4 -13.4,14.9 -19.7,22.5 0,0.2 0,0.4 0.1,0.5 0,0.2 0,0.4 0.1,0.5 0,0.2 0.1,0.4 0.1,0.5 0,0.2 0,0.4 0,0.5 -2,39.9 -6,79.6 -11.9,118.9 -5.9,39.3 -13.9,78.3 -24,116.7 -10.2,38.4 -22.4,76.4 -37,113.6 -14.6,37.3 -31.5,73.9 -50.8,109.7 -9.7,17.7 -20.1,35.2 -31.4,52.2 -11.2,17.1 -23.1,33.7 -35.9,49.9 -12.7,16.1 -26.2,31.7 -40.5,46.6 -14.3,15 -29.3,29.3 -45.2,42.9 -16,13.3 -32.7,25.9 -50.1,37.5 -17.3,11.7 -35.3,22.5 -53.9,32.2 -18.5,9.8 -37.6,18.6 -57.1,26.3 -19.5,7.7 -39.4,14.2 -59.6,19.6 -40,10.9 -81.1,18.3 -122.5,21.9 -41.5,3.7 -83.4,3.6 -124.9,-0.1 -41.5,-3.8 -82.8,-11.3 -123,-22.5 -40.2,-11.3 -79.5,-26.3 -117.1,-45.1 -37.8,-18.3 -73.3,-39.4 -107.1,-62.6 -33.7,-23.3 -65.6,-48.6 -96.1,-75.3 -30.4,-26.7 -59.4,-54.7 -87.3,-83.3 -27.9,-28.7 -54.7,-57.9 -80.8,-87 -26.2,-29.3 -51.6,-59.1 -76.8,-88.7 -25.2,-29.6 -50.1,-59.2 -75,-88.2 -25,-29.1 -50,-57.6 -75.5,-85.2 -25.5,-27.7 -51.4,-54.3 -78.1,-79.7 -13.4,-12.3 -27,-24.4 -40.9,-35.9 -13.8,-11.6 -27.8,-22.6 -42.1,-32.9 -14.3,-10.4 -28.8,-20 -43.6,-28.7 -14.8,-8.7 -29.8,-16.5 -45.2,-23.2 -15.9,-7.1 -32.1,-13.5 -48.4,-19.3 -16.4,-5.8 -33,-10.8 -49.7,-14.9 -16.7,-4.2 -33.4,-7.5 -50.2,-9.8 -16.7,-2.4 -33.4,-3.7 -50,-3.9 -33.5,-1 -66.7,2.8 -99.6,10.5 -32.8,7.7 -65.3,19.3 -97.2,33.8 -31.9,14.5 -63.2,32 -93.8,51.5 -30.7,19.5 -60.6,41 -89.6,63.6 -29.1,23 -57.6,47 -85.6,72 -28.1,24.9 -55.6,50.8 -82.6,77.2 -27.1,26.5 -53.8,53.6 -80.1,81.1 -26.4,27.5 -52.4,55.5 -78.2,83.6 -26,28.3 -51.5,56.9 -76.7,85.7 -25.2,28.8 -50.1,57.8 -75,87 -24.8,29.3 -49.7,58.7 -74.7,88.2 -25,29.6 -50.2,59.3 -75.9,89.2 -25.6,29.7 -51.7,59 -78.2,88 -26.5,28.9 -53.4,57.5 -80.8,85.7 -27.4,28.1 -55.3,55.8 -83.7,83.1 -28.3,27.2 -57.1,54 -86.5,80.3 -58.6,52.4 -119.1,102.9 -181.4,151.2 -62.2,48.2 -126.19,94.3 -191.79,137.9 -65.61,43.5 -132.82,84.7 -201.52,123.1 -68.7,38.5 -138.89,74.2 -210.42,107 -35.72,16.5 -71.73,32.3 -108.02,47.3 -36.28,15.1 -72.83,29.5 -109.61,43.3 -36.78,13.7 -73.8,26.8 -111.01,39.2 -37.21,12.4 -74.62,24.2 -112.19,35.3 -37.93,11 -75.57,21.4 -113.02,31.5 -37.45,10.1 -74.71,20 -111.85,30 -37.14,9.9 -74.17,19.9 -111.18,30.2 -37,10.3 -73.97,21 -111,32.3 -73,22.5 -146.18,45.2 -219.12,68.8 -72.93,23.6 -145.62,48.1 -217.64,74.2 -72.03,26.1 -143.38,53.9 -213.65,83.9 -70.27,30 -139.45,62.4 -207.12,97.8 -0.37,0.2 -0.72,0.5 -1.07,0.7 -0.34,0.3 -0.68,0.6 -1.02,0.8 -0.34,0.3 -0.68,0.5 -1.03,0.8 -0.35,0.3 -0.71,0.5 -1.09,0.7 -1.3,0.9 -2.7,1.4 -4.13,1.6 -1.43,0.3 -2.89,0.2 -4.28,-0.1 -1.4,-0.3 -2.74,-0.8 -3.93,-1.7 -1.2,-0.8 -2.25,-1.9 -3.09,-3.2 -0.77,-1.2 -1.28,-2.5 -1.54,-3.8 -0.26,-1.3 -0.28,-2.7 -0.06,-4 0.22,-1.3 0.68,-2.6 1.35,-3.8 0.67,-1.1 1.56,-2.2 2.66,-3.1 l 0.41,-0.3 0.41,-0.3 0.42,-0.3 0.41,-0.4 c 8.33,-6.6 16.09,-14.1 23.39,-22.3 7.3,-8.1 14.14,-16.9 20.62,-26.1 6.48,-9.3 12.6,-18.9 18.46,-28.7 5.87,-9.8 11.47,-19.8 16.92,-29.7 5.52,-10.1 10.91,-20.2 16.17,-30.5 5.25,-10.2 10.39,-20.6 15.4,-31 5.02,-10.4 9.93,-20.8 14.74,-31.4 4.8,-10.5 9.51,-21.1 14.13,-31.7 9.43,-21.4 18.62,-42.8 27.68,-64.2 9.06,-21.4 17.98,-42.9 26.86,-64.4 8.87,-21.5 17.69,-43.2 26.54,-65 8.85,-21.7 17.74,-43.6 26.76,-65.8 4.73,-11 9.66,-21.9 14.81,-32.7 5.15,-10.9 10.52,-21.7 16.12,-32.4 5.61,-10.7 11.45,-21.4 17.55,-32 6.1,-10.6 12.45,-21.1 19.07,-31.5 6.71,-10.2 13.67,-20.5 21.14,-30.6 7.46,-10.2 15.44,-20.1 24.16,-29.6 8.72,-9.6 18.2,-18.6 28.67,-26.9 10.47,-8.3 21.95,-15.9 34.67,-22.4 7.79,-13.7 14.5,-28.1 20.47,-42.9 5.97,-14.9 11.19,-30.3 15.99,-46 4.81,-15.6 9.2,-31.6 13.5,-47.6 4.31,-16 8.53,-32.1 12.99,-48.1 5.52,-20.7 10.94,-41.6 16.71,-62.7 5.77,-21 11.89,-42.2 18.8,-63.3 6.91,-21.2 14.62,-42.4 23.55,-63.4 8.94,-21 19.1,-41.9 30.95,-62.6 5.84,-10.2 12.23,-20.4 19.19,-30.4 6.96,-9.9 14.49,-19.6 22.62,-29 8.12,-9.4 16.84,-18.4 26.18,-26.8 9.34,-8.5 19.3,-16.5 29.9,-23.8 8.15,-5.4 16.37,-10.5 24.77,-15.3 8.4,-4.8 16.98,-9.3 25.85,-13.3 8.87,-4 18.02,-7.5 27.57,-10.4 9.55,-2.9 19.5,-5.2 29.96,-6.8 7.81,-15.3 14.61,-31.5 20.76,-48 6.14,-16.6 11.63,-33.7 16.82,-50.9 5.19,-17.3 10.07,-34.8 14.99,-52.2 4.92,-17.5 9.89,-34.9 15.25,-52 6.71,-23.4 13.17,-47.1 19.77,-70.8 6.6,-23.7 13.33,-47.5 20.56,-71.3 7.22,-23.8 14.95,-47.6 23.53,-71.4 8.59,-23.7 18.04,-47.3 28.73,-70.7 5.36,-11.7 10.93,-23.4 16.86,-35.1 5.93,-11.6 12.21,-23.2 19,-34.6 6.78,-11.4 14.06,-22.7 21.99,-33.7 7.93,-11 16.5,-21.8 25.87,-32.2 9.1,-10.4 19.07,-20.5 29.85,-30.1 10.79,-9.5 22.4,-18.5 34.8,-26.5 12.41,-8.1 25.6,-15.2 39.55,-21.1 13.96,-5.9 28.67,-10.6 44.11,-13.7 2.62,-0.5 5.28,-0.9 7.97,-1.3 2.69,-0.4 5.41,-0.6 8.16,-0.9 2.75,-0.2 5.52,-0.3 8.31,-0.5 2.8,-0.1 5.6,-0.1 8.42,-0.1 8.39,-12.7 16.09,-25.9 23.3,-39.5 7.2,-13.7 13.92,-27.7 20.35,-42 6.43,-14.3 12.57,-28.8 18.63,-43.4 6.06,-14.5 12.04,-29 18.14,-43.4 8.82,-21.8 17.24,-43.9 25.65,-66.1 8.4,-22.2 16.8,-44.6 25.56,-67 8.77,-22.3 17.91,-44.7 27.81,-67 9.91,-22.2 20.57,-44.3 32.39,-66.2 5.87,-10.9 11.95,-21.8 18.33,-32.7 6.39,-10.8 13.09,-21.6 20.21,-32.2 7.11,-10.7 14.64,-21.2 22.67,-31.4 8.04,-10.3 16.59,-20.4 25.74,-30.2 6.52,-7 13.46,-13.8 20.81,-20.4 7.35,-6.5 15.11,-12.8 23.25,-18.7 8.14,-6 16.66,-11.5 25.55,-16.6 8.88,-5.2 18.12,-9.8 27.7,-13.9 7.07,-11.5 13.68,-23.5 19.99,-35.7 6.31,-12.2 12.31,-24.7 18.16,-37.4 5.84,-12.6 11.52,-25.4 17.19,-38.1 5.66,-12.7 11.32,-25.5 17.1,-38 9.65,-22.2 18.96,-44.7 28.39,-67.3 9.44,-22.6 19,-45.3 29.14,-68 10.14,-22.7 20.87,-45.3 32.64,-67.6 11.77,-22.3 24.58,-44.4 38.9,-66.1 6.99,-10.8 14.38,-21.5 22.24,-32.1 7.85,-10.5 16.16,-20.9 25,-31 8.84,-10.1 18.19,-20 28.13,-29.4 9.94,-9.4 20.47,-18.4 31.64,-27 9.27,-6.7 18.77,-13 28.57,-18.7 9.8,-5.8 19.89,-11 30.33,-15.7 10.44,-4.6 21.23,-8.6 32.42,-11.9 11.2,-3.4 22.8,-6 34.86,-7.8 1.22,-1.9 2.42,-3.8 3.61,-5.8 1.19,-1.9 2.36,-3.9 3.52,-5.8 1.15,-2 2.3,-4 3.42,-6 1.13,-2 2.25,-4 3.35,-6.1 4.74,-7.9 9.35,-16 13.91,-24.3 4.55,-8.2 9.04,-16.5 13.55,-24.9 4.5,-8.5 9.02,-17 13.63,-25.5 4.61,-8.6 9.3,-17.1 14.16,-25.7 4.89,-8.6 10.03,-17.1 15.49,-25.6 5.45,-8.5 11.24,-16.9 17.43,-25.2 6.19,-8.3 12.79,-16.4 19.88,-24.3 7.1,-8 14.69,-15.7 22.86,-23.1 8.7,-7.1 17.58,-13.6 26.71,-19.6 9.13,-6 18.52,-11.3 28.24,-16 9.72,-4.8 19.77,-8.9 30.23,-12.4 10.47,-3.4 21.34,-6.3 32.7,-8.5 2.51,-0.4 5.04,-0.8 7.59,-1.1 2.55,-0.3 5.11,-0.5 7.68,-0.7 2.58,-0.2 5.16,-0.3 7.76,-0.4 2.59,0 5.19,-0.1 7.79,-0.1 -9.37,-21.7 -19.57,-43.1 -30.51,-64.1 -10.94,-21 -22.63,-41.6 -35.01,-61.8 -12.38,-20.2 -25.44,-40 -39.13,-59.2 -13.69,-19.2 -28,-37.9 -42.87,-56.1 -17.08,-21.4 -35.05,-42.1 -53.82,-62 -18.77,-19.9 -38.34,-39 -58.61,-57.2 -20.27,-18.2 -41.25,-35.7 -62.85,-52.2 -21.59,-16.6 -43.81,-32.3 -66.55,-47.1 -22.58,-15.1 -45.74,-29.3 -69.41,-42.6 -23.66,-13.3 -47.82,-25.6 -72.37,-37.2 -24.56,-11.6 -49.52,-22.3 -74.79,-32.4 -25.26,-10 -50.84,-19.3 -76.62,-27.9 -26.09,-8.5 -52.28,-16 -78.64,-22.7 -26.36,-6.8 -52.89,-12.7 -79.66,-18 -26.76,-5.3 -53.76,-10.1 -81.06,-14.4 -27.3,-4.4 -54.9,-8.4 -82.87,-12.2 -55.95,-8.4 -112.02,-16.4 -168.12,-24.6 -56.1,-8.3 -112.23,-16.8 -168.28,-26.3 -56.05,-9.5 -112.03,-20 -167.84,-32.3 -55.8,-12.2 -111.44,-26.2 -166.81,-42.6 -13.82,-4.1 -27.63,-8.4 -41.41,-12.9 -13.78,-4.5 -27.53,-9.2 -41.22,-14.2 -13.68,-5.1 -27.32,-10.4 -40.87,-16 -13.55,-5.7 -27.03,-11.8 -40.39,-18.3 -13.2,-6.4 -26.48,-13.3 -39.53,-21 -13.05,-7.7 -25.86,-16.1 -38.14,-25.3 -12.28,-9.3 -24.01,-19.5 -34.89,-30.8 -10.89,-11.3 -20.93,-23.6 -29.81,-37.3 -8.18,-13 -15.55,-26.7 -21.82,-40.9 -6.26,-14.3 -11.41,-29 -15.15,-44.1 -3.74,-15.1 -6.06,-30.6 -6.67,-46.2 -0.6,-15.6 0.52,-31.4 3.65,-47.1 2.39,-12.1 5.85,-23.6 10.25,-34.6 4.39,-11 9.71,-21.5 15.82,-31.4 6.1,-9.9 12.98,-19.3 20.49,-28.2 7.52,-8.8 15.66,-17.1 24.27,-24.8 -4.33,-3.7 -8.61,-7.5 -12.83,-11.4 -4.22,-3.8 -8.38,-7.8 -12.46,-11.8 -4.09,-4 -8.1,-8.1 -12.02,-12.4 -3.93,-4.2 -7.77,-8.5 -11.51,-12.9 -6.84,-8 -13.38,-16.2 -19.61,-24.7 -6.23,-8.4 -12.14,-17.1 -17.72,-25.9 -5.58,-8.9 -10.83,-17.9 -15.73,-27.2 -4.89,-9.2 -9.44,-18.6 -13.62,-28.1 -4.46,-10 -8.29,-20.4 -11.47,-30.9 -3.19,-10.6 -5.72,-21.3 -7.59,-32.2 -1.86,-10.8 -3.06,-21.7 -3.57,-32.7 -0.5,-10.9 -0.31,-21.9 0.59,-32.8 1.9,-21.5 6.47,-42.9 13.56,-63.6 7.09,-20.6 16.71,-40.4 28.74,-58.5 12.03,-18.2 26.47,-34.6 43.19,-48.5 16.72,-13.9 35.72,-25.2 56.88,-33.2 9.47,-3.6 19.25,-6.3 29.17,-8.1 9.93,-1.8 20,-2.8 30.04,-2.9 10.05,-0.1 20.08,0.7 29.91,2.3 9.84,1.5 19.49,3.9 28.78,7.1 -0.45,-0.9 -0.92,-1.9 -1.41,-2.8 -0.49,-0.9 -1,-1.9 -1.5,-2.8 -0.5,-0.9 -0.99,-1.9 -1.47,-2.8 -0.48,-0.9 -0.94,-1.9 -1.36,-2.9 -4.68,-10.2 -8.94,-20.6 -12.83,-31.2 -3.89,-10.5 -7.42,-21.2 -10.61,-31.9 -3.2,-10.8 -6.06,-21.7 -8.64,-32.6 -2.57,-10.9 -4.86,-21.9 -6.9,-33 -1.91,-11.4 -3.41,-23 -4.28,-34.8 -0.87,-11.9 -1.11,-23.9 -0.5,-35.9 0.6,-12.1 2.04,-24.2 4.53,-36.3 2.5,-12 6.04,-24 10.85,-35.8 4.7,-11.8 10.69,-23 17.72,-33.4 7.03,-10.5 15.09,-20.2 23.93,-29.1 8.84,-8.8 18.46,-16.8 28.59,-23.7 10.13,-6.9 20.77,-12.9 31.67,-17.6 10.88,-5 21.95,-9.2 33.14,-12.6 11.18,-3.4 22.47,-6.1 33.81,-8.1 11.33,-2 22.71,-3.3 34.06,-4 11.34,-0.8 22.66,-1 33.88,-0.6 15.33,0.5 30.67,1.8 45.9,3.9 15.23,2.1 30.35,4.9 45.23,8.6 14.89,3.6 29.55,8.1 43.87,13.4 14.31,5.3 28.28,11.4 41.79,18.5 -3.41,-11.9 -6.53,-23.8 -9.27,-35.9 -2.74,-12 -5.09,-24.2 -6.99,-36.5 -1.9,-12.3 -3.33,-24.7 -4.22,-37.2 -0.89,-12.6 -1.23,-25.2 -0.94,-38 0.38,-10.4 1.1,-21 2.38,-31.7 1.28,-10.6 3.11,-21.4 5.69,-32.1 2.58,-10.6 5.91,-21.2 10.19,-31.6 4.29,-10.4 9.53,-20.5 15.92,-30.3 6.13,-9.9 13.42,-19 21.56,-27.2 8.14,-8.1 17.13,-15.4 26.65,-21.6 9.52,-6.3 19.57,-11.6 29.83,-16 10.27,-4.3 20.74,-7.6 31.11,-9.9 18.11,-3.6 35.98,-5.6 53.59,-6.3 17.61,-0.7 34.96,-0.1 52.07,1.7 17.1,1.7 33.96,4.6 50.56,8.3 16.6,3.8 32.95,8.4 49.05,13.6 -1.11,-5 -2.16,-10 -3.14,-15.1 -0.98,-5.1 -1.89,-10.2 -2.71,-15.4 -0.83,-5.2 -1.58,-10.4 -2.23,-15.8 -0.66,-5.3 -1.22,-10.7 -1.68,-16.1 -0.25,-6.3 -0.21,-12.7 0.18,-19.1 0.39,-6.5 1.14,-12.9 2.28,-19.4 1.15,-6.5 2.7,-13 4.7,-19.4 2.01,-6.5 4.47,-12.9 7.45,-19.2 2.93,-6.4 6.54,-12.5 10.71,-18.4 4.17,-5.9 8.9,-11.4 14.06,-16.5 5.15,-5.1 10.74,-9.8 16.64,-14 5.9,-4.1 12.1,-7.6 18.49,-10.5 13.13,-5.6 26.17,-9.2 39.01,-11.1 12.84,-1.9 25.47,-2.2 37.79,-1.3 12.33,0.9 24.35,3.1 35.95,5.9 11.6,2.9 22.79,6.6 33.45,10.6 20.17,8.1 39.23,18.3 56.97,30.2 17.75,11.9 34.18,25.6 49.11,40.6 14.93,15 28.34,31.4 40.05,48.8 11.71,17.4 21.72,35.8 29.82,54.9 14.65,1.4 29.41,3.4 44.19,6.1 14.78,2.6 29.57,5.9 44.27,9.8 14.71,4 29.32,8.7 43.75,14.2 14.43,5.5 28.67,11.8 42.61,19.1 15.25,7.8 29.76,16.6 43.64,26.2 13.88,9.6 27.14,19.9 39.87,30.7 12.73,10.9 24.95,22.2 36.75,33.8 11.8,11.6 23.18,23.5 34.26,35.4 21.88,24.2 42.66,49.1 62.57,74.4 19.9,25.2 38.93,51 57.31,77 18.37,26.1 36.09,52.5 53.38,79 17.28,26.6 34.13,53.4 50.77,80.1 16.68,26.9 32.9,54 48.87,81.1 15.98,27.2 31.69,54.3 47.35,81.3 15.65,27 31.25,53.9 46.98,80.4 15.74,26.5 31.6,52.7 47.81,78.4 16.34,25.7 33.04,50.9 50.44,75.4 17.4,24.6 35.3,48.3 54.1,71 18.8,22.7 38.3,44.2 58.9,64.4 20.5,20.2 42,38.9 64.8,55.9 22.5,17.1 46.4,32.4 71.4,46.1 24.9,13.7 51,25.9 77.8,36.8 26.9,10.9 54.6,20.5 83,29.1 28.3,8.6 57.3,16.2 86.7,23 29.4,6.9 59.1,13.1 89,18.8 30,5.8 60.2,11 90.5,15.9 30.4,5 60.9,9.5 91.6,13.9 30.6,4.3 61.4,8.5 92.1,12.6 l 93.1,11.4 93.2,11.4 93.1,11.4 93.1,11.4 c 31.7,4.3 63.4,9 95,14.1 31.7,5.2 63.2,10.9 94.8,17.2 31.5,6.2 62.9,13.1 94.2,20.7 31.3,7.6 62.4,15.9 93.4,25 62,17.6 123.4,38.3 183.8,62.2 60.5,23.8 119.9,50.7 177.7,80.9 57.8,30.1 114.1,63.5 168.2,100.1 54.1,36.7 106.2,76.6 155.5,119.9 49.5,43.3 95.7,89.8 138.9,138.7 43.1,48.9 83.2,100.2 120.6,153.3 37.3,53.2 71.8,108.1 103.8,164.2 31.9,56.1 61.3,113.4 88.4,171.1 13.7,28.7 26.8,57.9 39.6,87.2 12.7,29.3 25,58.8 36.9,88.3 11.9,29.5 23.5,59 34.9,88.2 11.3,29.3 22.4,58.3 33.3,86.9 11.2,28.7 22.6,57.3 34.3,85.8 11.7,28.5 23.6,56.8 35.9,85 12.2,28.1 24.8,56.1 37.8,83.9 13,27.8 26.3,55.3 40.1,82.6 13.9,27.2 28,54.3 42.7,81 14.6,26.8 29.7,53.3 45.5,79.3 15.7,26.1 32,51.7 49.1,76.6 17.1,25 35,49.4 53.7,73 14.2,17.9 29,35.5 44.4,52.5 15.3,17 31.4,33.4 48.1,49 16.8,15.6 34.2,30.2 52.5,43.8 18.3,13.5 37.3,25.8 57.3,36.7 -6.8,-8.4 -13.4,-17 -19.7,-25.8 -6.4,-8.8 -12.5,-17.8 -18.3,-27 -5.8,-9.2 -11.4,-18.6 -16.6,-28.3 -5.3,-9.6 -10.2,-19.5 -14.7,-29.6 -9,-19.3 -16.6,-39.1 -22.8,-59.4 -6.2,-20.2 -11.2,-40.7 -14.9,-61.4 -3.8,-20.7 -6.3,-41.6 -7.8,-62.3 -1.5,-20.7 -1.9,-41.4 -1.4,-61.8 0.5,-20.4 1.8,-40.6 3.5,-60.7 1.8,-20 4.2,-39.8 6.9,-59.4 2.7,-19.6 5.9,-39.1 9.3,-58.3 3.4,-19.2 7,-38.3 10.8,-57.2 l 0.9,-5 0.9,-5 1,-4.9 0.9,-5 c -2.1,1.3 -4.3,2.6 -6.5,3.9 -2.2,1.3 -4.4,2.6 -6.7,3.8 -2.2,1.2 -4.5,2.4 -6.8,3.5 -2.3,1.1 -4.6,2.2 -7,3.2 -10.3,4.9 -21.4,8.7 -32.8,11.5 -11.4,2.8 -23.3,4.5 -35.3,5 -12,0.6 -24.1,0 -36.1,-1.8 -12,-1.9 -23.9,-4.9 -35.5,-9.3 -11.4,-4.5 -22.3,-10.1 -32.5,-16.9 -10.2,-6.7 -19.7,-14.5 -28.3,-23.2 -8.7,-8.6 -16.4,-18.2 -23.1,-28.5 -6.7,-10.3 -12.3,-21.2 -16.7,-32.8 -4.4,-11.1 -7.6,-23.1 -9.4,-35.5 -1.8,-12.4 -2.1,-25.2 -1,-38 1.2,-12.7 3.9,-25.3 8.3,-37.3 4.4,-12 10.5,-23.4 18.3,-33.6 7.5,-10.4 16.4,-19.7 26.2,-27.7 9.8,-8 20.7,-14.7 32.2,-19.8 11.5,-5.2 23.8,-8.7 36.4,-10.5 12.6,-1.8 25.6,-1.8 38.6,0.2 13.1,2 25.6,6.3 36.9,12.5 11.3,6.3 21.5,14.4 30.1,23.8 8.7,9.4 15.8,20.1 20.9,31.6 5.2,11.6 8.3,23.9 9.1,36.5 0.3,6.2 0.2,12.4 -0.3,18.5 -0.6,6.1 -1.6,12.1 -3.1,18 -1.6,5.9 -3.6,11.8 -6.2,17.4 -2.5,5.6 -5.7,11.1 -9.4,16.4 -3.5,5.6 -8.1,10.4 -13.4,14.5 -5.3,4 -11.3,7.2 -17.6,9.5 -6.3,2.3 -12.8,3.7 -19.3,4.1 -6.4,0.4 -12.7,-0.3 -18.5,-2 l -0.2,-0.1 h -0.2 l -0.2,-0.1 -0.2,-0.1 c -1.7,-0.5 -3.2,-1.3 -4.5,-2.4 -1.3,-1.1 -2.4,-2.4 -3.2,-3.9 -0.8,-1.4 -1.3,-3 -1.4,-4.7 -0.2,-1.7 -0.1,-3.4 0.5,-5.1 0.4,-1.5 1.1,-2.8 2,-4 0.8,-1.2 1.9,-2.2 3.1,-3 1.2,-0.8 2.5,-1.4 3.9,-1.8 1.4,-0.3 2.8,-0.5 4.3,-0.4 8.4,0.6 15.4,-1.2 21.3,-4.8 5.8,-3.6 10.4,-9 13.8,-15.4 3.3,-6.4 5.4,-13.8 6.3,-21.6 0.9,-7.8 0.5,-16 -1.1,-23.7 -1.4,-7.6 -4.1,-14.8 -7.9,-21.3 -3.7,-6.5 -8.4,-12.3 -13.9,-17.2 -5.4,-4.9 -11.6,-8.9 -18.1,-11.8 -6.6,-2.9 -13.6,-4.6 -20.7,-4.9 -7,-0.3 -14.3,0.4 -21.4,2 -7.2,1.7 -14.3,4.2 -21,7.6 -6.7,3.4 -13,7.6 -18.6,12.5 -5.5,4.9 -10.4,10.6 -14.3,16.9 -4.2,6.2 -7.4,12.8 -9.8,19.6 -2.4,6.9 -3.8,14 -4.4,21.3 -0.5,7.3 -0.2,14.7 1.1,22.2 1.2,7.5 3.3,15.1 6.3,22.6 5.5,15.3 14.2,28.6 25.1,39.7 10.9,11.1 24,19.9 38.5,26.1 14.5,6.1 30.3,9.6 46.6,9.9 16.3,0.3 33.1,-2.5 49.4,-8.8 5.8,-1.9 11.5,-4.1 17,-6.7 5.5,-2.6 10.9,-5.6 16.1,-8.9 5.2,-3.3 10.2,-6.8 15,-10.7 4.8,-3.9 9.4,-8.1 13.8,-12.5 l 6.1,-32.3 6.1,-32.3 6.1,-32.4 6.1,-32.3 c 6.5,-37.5 13,-74.9 19.1,-112.4 6,-37.4 11.6,-74.8 16.2,-112.3 4.6,-37.4 8.3,-74.8 10.5,-112.1 2.2,-37.4 2.9,-74.7 1.7,-112 -0.4,-37.1 -3.3,-74.3 -9.1,-110.8 -5.8,-36.6 -14.4,-72.4 -26.2,-107 -11.8,-34.6 -26.8,-67.8 -45.2,-99.1 -18.4,-31.3 -40.2,-60.5 -65.8,-87.2 -13,-12.4 -27,-24.5 -41.5,-36.4 -14.6,-11.9 -29.6,-23.5 -45,-35.1 -15.3,-11.5 -30.9,-23 -46.4,-34.4 -15.5,-11.5 -30.9,-23 -45.9,-34.6 l -45.8,-35 -45.8,-35 -45.8,-34.9 -45.9,-35 49,30.3 49,30.4 49,30.4 49,30.3 c 16.2,10.7 32.4,20.9 48.7,30.9 16.2,10.1 32.5,20.1 48.7,30.4 16.2,10.3 32.4,20.8 48.5,32 16.2,11.2 32.2,23 48.1,35.8 30.9,26.8 57.2,57.4 79.6,90.6 22.3,33.3 40.6,69.2 55.4,106.5 14.8,37.4 26,76.3 34.1,115.5 8.2,39.2 13.2,78.8 15.7,117.7 4.4,55.6 5.1,111.1 2.9,166.3 -2.1,55.3 -7,110.3 -13.5,164.9 -6.5,54.7 -14.6,109 -23.3,163 -8.6,53.9 -17.8,107.4 -26.3,160.5 8.7,0.5 19.3,2.2 31.3,5.4 12,3.3 25.3,8.2 39.5,15.2 14.2,7.1 29.2,16.3 44.5,28.1 15.4,11.8 31,26.3 46.4,44 18.8,21.6 35.2,44.9 49.1,67.9 13.9,23 25.3,45.6 34.2,65.8 8.9,20.1 15.2,37.7 18.9,50.7 3.8,13 4.9,21.3 3.4,22.9 -1.4,1.6 -6.5,2.5 -14.8,1.6 -8.3,-1 -19.9,-3.7 -34.2,-9.6 -14.3,-5.9 -31.4,-14.9 -50.9,-28.2 -19.5,-13.2 -41.3,-30.8 -65.1,-54 -14.3,-13.9 -27.2,-27.8 -38.8,-41.5 -11.7,-13.8 -22,-27.3 -31.2,-40.3 -9.2,-13.1 -17.1,-25.7 -24,-37.5 -6.8,-11.8 -12.6,-22.8 -17.3,-32.9 -2.6,17.2 -5.1,34.3 -7.4,51.3 -2.3,17.1 -4.5,34 -6.6,51 -2,16.9 -3.8,33.7 -5.4,50.6 -1.6,16.8 -3,33.5 -4.1,50.1 -0.3,18 0.2,35.7 1.6,53.3 1.4,17.5 3.7,34.8 6.9,51.9 3.2,17 7.4,33.7 12.6,50.1 5.2,16.3 11.5,32.3 18.8,47.9 0.5,0.9 1,1.9 1.5,2.9 0.6,0.9 1.1,1.9 1.7,2.8 0.5,1 1.1,1.9 1.6,2.9 0.5,0.9 1.1,1.9 1.6,2.8 7.9,-5 17.3,-10.1 28.2,-14.7 10.9,-4.7 23.2,-9 37.1,-12.4 13.8,-3.4 29.1,-5.9 45.9,-7.2 16.8,-1.2 35,-1.2 54.7,0.6 28.5,2.6 56.4,8.2 82.4,15.2 25.9,7 49.8,15.5 70.1,23.9 20.3,8.4 37.1,16.8 48.7,23.6 11.7,6.8 18.3,12 18.3,14.2 0.1,2.1 -3,6.3 -9.6,11.4 -6.7,5.1 -16.9,11 -31.3,16.6 -14.4,5.7 -33,11 -56.2,14.9 -23.3,3.8 -51.2,6.2 -84.4,6 -16.4,-0.2 -32.2,-1 -47.2,-2.3 -15.1,-1.4 -29.4,-3.3 -43,-5.5 -13.6,-2.3 -26.4,-4.9 -38.4,-7.8 -11.9,-2.9 -23,-6 -33.2,-9.2 5.8,7.7 11.8,15.3 18,22.9 6.3,7.5 12.7,14.9 19.3,22.1 6.6,7.3 13.4,14.4 20.4,21.4 6.9,7.1 14.1,13.9 21.4,20.7 0.5,0.4 1,0.9 1.5,1.3 0.5,0.5 1,0.9 1.5,1.3 0.5,0.4 1,0.9 1.6,1.3 0.5,0.4 1,0.9 1.5,1.3 13.4,0 26.9,0.3 40.3,0.7 13.4,0.4 26.8,1 40.1,1.8 13.4,0.7 26.7,1.7 39.9,2.7 13.3,1 26.5,2.2 39.6,3.4 3.3,0.3 6.3,1.2 9.1,2.6 2.7,1.5 5.1,3.4 7.1,5.7 2,2.4 3.5,5.1 4.5,8 1,2.9 1.4,6.1 1.1,9.4 -0.1,1.7 -0.4,3.3 -0.9,4.9 -0.5,1.5 -1.1,3 -1.9,4.5 -0.8,1.4 -1.7,2.7 -2.7,3.9 -1.1,1.3 -2.2,2.4 -3.4,3.4 -4.1,3.3 -8.2,6.7 -12.3,10.1 -4.1,3.3 -8.2,6.8 -12.2,10.2 -4.1,3.5 -8.1,7 -12.2,10.5 -4,3.5 -8.1,7 -12.1,10.5 4,2.5 8.1,5.1 12.1,7.6 4.1,2.5 8.1,5 12.2,7.5 4,2.6 8.1,5.1 12.2,7.6 4,2.4 8.1,4.9 12.2,7.4 6.7,4.2 13.6,8.6 20.6,13.2 7,4.5 14.2,9.2 21.4,14 7.1,4.8 14.4,9.7 21.6,14.6 7.3,4.9 14.5,9.8 21.7,14.6 7.8,-4.9 17.3,-9.8 28.7,-14.4 11.3,-4.5 24.5,-8.5 39.3,-11.5 14.9,-3 31.5,-4.9 49.7,-5.2 18.3,-0.3 38.2,1.1 59.7,4.8 28.2,4.8 55.6,12.5 80.9,21.5 25.3,9 48.5,19.3 68.1,29.2 19.6,10 35.7,19.6 46.8,27.3 11.1,7.7 17.3,13.4 17.2,15.6 -0.2,2.1 -3.5,6.1 -10.5,10.6 -7,4.5 -17.7,9.7 -32.5,14.2 -14.8,4.5 -33.7,8.4 -57.2,10.4 -23.5,2.1 -51.6,2.3 -84.6,-0.5 -10.3,-0.9 -20.3,-2 -29.9,-3.4 -9.7,-1.3 -19.1,-2.9 -28.2,-4.7 -9.1,-1.7 -17.8,-3.6 -26.3,-5.7 -8.5,-2 -16.7,-4.2 -24.6,-6.4 0.7,0.7 1.5,1.4 2.3,2.1 0.8,0.8 1.6,1.5 2.4,2.2 0.7,0.7 1.5,1.4 2.3,2.1 0.8,0.7 1.6,1.5 2.3,2.2 16.9,17.8 32.8,36.3 47.9,55.3 15.1,19.1 29.4,38.7 42.8,58.8 13.4,20.1 26,40.8 37.7,61.8 11.8,21 22.7,42.4 32.9,64.2 7.9,-1.4 18.4,-2 30.8,-1.1 12.5,0.9 26.9,3.2 42.8,7.7 15.9,4.5 33.2,11.2 51.3,20.9 18.1,9.6 37.2,22.2 56.5,38.4 21.8,18.5 41.6,39 58.8,59.6 17.3,20.5 32.1,41.1 43.9,59.7 11.9,18.5 20.9,34.9 26.6,47.2 5.7,12.2 8.1,20.3 6.9,22.1 -1.2,1.8 -6.1,3.5 -14.4,3.8 -8.4,0.4 -20.2,-0.6 -35.2,-4.2 -15.1,-3.6 -33.4,-9.8 -54.6,-20 -21.3,-10.1 -45.6,-24.1 -72.7,-43.2"
         style="fill:#a86821;fill-opacity:1;fill-rule:nonzero;stroke:none"
         id="path14" />
      <path
         d="m 9702.06,15890.7 c 0.73,-1.3 1.71,-2.7 2.85,-4.2 1.15,-1.4 2.48,-3 3.91,-4.5 1.44,-1.5 2.97,-3 4.55,-4.5 1.58,-1.4 3.19,-2.8 4.77,-4.1 1.01,-0.7 2.03,-1.4 3.07,-2 1.04,-0.7 2.09,-1.3 3.15,-2 1.07,-0.6 2.15,-1.2 3.23,-1.8 1.09,-0.5 2.18,-1.1 3.28,-1.6 l 1.56,-0.7 1.56,-0.7 1.56,-0.7 1.55,-0.7 4.81,-2 4.82,-2 4.81,-2.1 4.81,-2 c 3.25,-1.3 6.49,-2.5 9.72,-3.8 3.23,-1.3 6.45,-2.7 9.66,-4 3.21,-1.3 6.42,-2.7 9.61,-4.1 3.2,-1.4 6.38,-2.8 9.56,-4.2 12.76,-5.5 25.45,-11.2 38.07,-17.1 12.61,-5.9 25.14,-12 37.59,-18.2 12.44,-6.3 24.8,-12.7 37.08,-19.2 12.27,-6.6 24.46,-13.4 36.55,-20.3 48.37,-27.8 95.21,-58.1 140.51,-90.6 45.4,-32.5 89.2,-67.3 131.6,-103.9 42.3,-36.6 83.2,-75.2 122.6,-115.3 39.4,-40.1 77.4,-81.8 113.9,-124.8 36.7,-42.9 72,-87 106.3,-132.1 34.4,-45 67.7,-90.9 100.4,-137.4 32.7,-46.5 64.8,-93.5 96.7,-140.9 31.9,-47.4 63.6,-95 95.5,-142.6 15.9,-23.9 31.8,-47.8 47.9,-71.7 16.1,-23.8 32.4,-47.6 49.2,-71.1 16.7,-23.6 33.9,-46.9 51.7,-69.9 17.8,-23.1 36.2,-45.8 55.4,-68 9.6,-11.1 19.5,-22.1 29.6,-32.8 10.2,-10.8 20.7,-21.3 31.5,-31.6 10.8,-10.3 22,-20.3 33.6,-29.9 11.6,-9.6 23.6,-18.9 36.1,-27.8 12.3,-8.8 25.4,-17 39,-24.6 13.6,-7.5 27.8,-14.3 42.4,-20.2 14.7,-5.8 29.8,-10.7 45.2,-14.5 15.5,-3.7 31.3,-6.3 47.4,-7.6 l 13.6,-1 13.6,-1 13.6,-1 13.6,-1 -6,13 -6,13.1 -6,13 -6,13.1 c -15.1,33 -28.4,67.5 -40.2,103 -11.8,35.5 -22.1,72 -31.2,109.2 -9.1,37.1 -17.1,74.8 -24.1,112.6 -7,37.8 -13.2,75.7 -18.8,113.2 -5.6,38 -10.3,76.1 -14.3,114.3 -4,38.2 -7.3,76.5 -10.3,115 -3.1,38.5 -5.8,77.1 -8.5,115.9 -2.7,38.8 -5.4,77.8 -8.6,117 -6.2,77.8 -13.5,155.7 -22.1,233.6 -8.6,77.8 -18.5,155.6 -30.2,233.2 -11.7,77.6 -25,155.1 -40.4,232.3 -15.4,77.2 -32.9,154.2 -52.7,230.8 -10.1,38.2 -20.8,76.4 -32.3,114.4 -11.6,38 -24,75.9 -37.4,113.4 -13.5,37.6 -28,74.9 -43.8,111.7 -15.7,36.9 -32.8,73.3 -51.3,109.3 -18.1,35.9 -37.8,71.4 -59,106.1 -21.3,34.7 -44.2,68.6 -68.7,101.4 -24.6,32.8 -50.8,64.5 -78.8,94.7 -28.1,30.2 -57.9,59 -89.5,86 -31.5,27.2 -64.8,52 -99.2,74.6 -34.5,22.6 -70.1,43 -106.4,61.5 -36.3,18.5 -73.3,35.1 -110.6,50 -37.2,14.8 -74.6,28 -111.7,39.7 -36.8,12.4 -73.5,24.4 -109.7,37 -36.2,12.6 -71.8,25.8 -106.23,40.7 -34.48,14.9 -67.85,31.3 -99.57,50.5 -31.73,19.1 -61.82,40.8 -89.74,66.2 l -12.57,11.4 -12.57,11.4 -12.57,11.4 -12.57,11.5 0.48,-17.3 0.48,-17.3 0.48,-17.3 0.48,-17.2 c 0.48,-17.2 1.12,-34.4 1.86,-51.6 0.74,-17.2 1.59,-34.4 2.47,-51.6 0.89,-17.2 1.83,-34.4 2.76,-51.5 0.92,-17.2 1.84,-34.4 2.7,-51.5 1.23,-16.7 2.19,-33.2 3.03,-49.5 0.84,-16.4 1.54,-32.7 2.24,-49.1 0.71,-16.4 1.41,-32.9 2.24,-49.6 0.84,-16.7 1.8,-33.7 3.02,-51.1 0,-0.1 -0.01,-0.2 -0.03,-0.3 -0.02,-0.1 -0.04,-0.2 -0.07,-0.3 -0.02,-0.1 -0.05,-0.2 -0.06,-0.3 -0.02,-0.1 -0.03,-0.2 -0.02,-0.4 l 0.03,-0.5 0.03,-0.6 0.03,-0.5 0.03,-0.6 c 1.19,-22.1 1.57,-44.6 1.3,-67.3 -0.27,-22.7 -1.18,-45.6 -2.57,-68.6 -1.39,-23 -3.25,-46.1 -5.41,-69.2 -2.16,-23 -4.62,-46 -7.22,-68.8 -2.28,-22.9 -5.46,-45.7 -9.07,-68.5 -3.61,-22.9 -7.65,-45.9 -11.66,-69 -4,-23.1 -7.97,-46.4 -11.45,-70 -3.48,-23.6 -6.46,-47.5 -8.48,-71.8 -1.03,-12 -1.93,-24.1 -2.61,-36.2 -0.69,-12.1 -1.18,-24.2 -1.39,-36.4 -0.22,-12.2 -0.16,-24.5 0.25,-36.8 0.4,-12.3 1.14,-24.7 2.3,-37.2 0.35,-2.8 0.71,-5.6 1.08,-8.5 0.37,-2.9 0.76,-5.8 1.16,-8.7 0.41,-2.9 0.83,-5.8 1.28,-8.7 0.44,-2.9 0.92,-5.9 1.42,-8.8 -5.06,-22.6 -9.92,-45.2 -14.34,-68.1 -4.43,-22.9 -8.43,-46 -11.8,-69.3 -3.37,-23.3 -6.11,-46.8 -7.99,-70.7 -1.89,-23.8 -2.93,-47.8 -2.92,-72.2 0.61,-7.9 0.8,-15.6 1.13,-23.4 0.32,-7.9 0.78,-15.8 1.93,-24.1 1.14,-8.3 2.97,-17 6.03,-26.4 3.07,-9.4 7.36,-19.5 13.43,-30.6"
         style="fill:#a86821;fill-opacity:1;fill-rule:nonzero;stroke:none"
         id="path16" />
    </g>
  </g>
</svg>
