<?xml version="1.0" encoding="UTF-8" standalone="no"?>
<!-- Created with Inkscape (http://www.inkscape.org/) -->

<svg
   width="800"
   height="50"
   viewBox="0 0 211.664 13.229"
   version="1.1"
   id="svg30434"
   inkscape:version="1.1.2 (0a00cf5339, 2022-02-04)"
   sodipodi:docname="separator_0.svg"
   xmlns:inkscape="http://www.inkscape.org/namespaces/inkscape"
   xmlns:sodipodi="http://sodipodi.sourceforge.net/DTD/sodipodi-0.dtd"
   xmlns="http://www.w3.org/2000/svg"
   xmlns:svg="http://www.w3.org/2000/svg">
  <sodipodi:namedview
     id="namedview30436"
     pagecolor="#ffffff"
     bordercolor="#cccccc"
     borderopacity="1"
     inkscape:pageshadow="0"
     inkscape:pageopacity="1"
     inkscape:pagecheckerboard="0"
     inkscape:document-units="px"
     showgrid="false"
     units="px"
     inkscape:zoom="0.68875"
     inkscape:cx="400"
     inkscape:cy="24.682396"
     inkscape:window-width="1366"
     inkscape:window-height="714"
     inkscape:window-x="0"
     inkscape:window-y="22"
     inkscape:window-maximized="1"
     inkscape:current-layer="layer1" />
  <defs
     id="defs30431" />
  <g
     inkscape:label="Layer 1"
     inkscape:groupmode="layer"
     id="layer1">
    <g
       id="g30970"
       transform="matrix(0.35277332,0,0,-0.35277332,130.67612,316.99434)"
       style="fill:#a96821;fill-opacity:1">
      <path
         d="m -74.515181,870.54748 c -0.118,0 -0.236,0.005 -0.354,0.013 -0.63,-0.011 -6.258,0.091 -10.108,7.038 -1.275,2.267 -2.998,4.39 -4.492,5.537 l -0.226,0.184 c -1.916,1.558 -4.469,2.033 -6.829,1.267 -2.255,-0.732 -3.893999,-2.445 -4.494999,-4.7 -0.047,-0.177 -0.088,-0.356 -0.123,-0.538 -0.315,-1.624 0.09,-3.289 1.141,-4.688 1.496999,-1.993 3.483999,-2.874 5.457999,-2.418 1.779,0.412 3.154,1.857 3.503,3.682 0.178,0.929 -0.06,1.921 -0.651,2.724 -0.889,1.208 -2.066,1.749 -3.225,1.486 -1.036,-0.235 -1.837,-1.075 -2.04,-2.139 -0.209,-1.097 0.493,-2.162 1.566,-2.374 l -0.302,-1.532 c -1.913,0.377 -3.169,2.26 -2.799,4.198 0.319,1.675 1.587,2.998 3.229,3.371 1.769,0.403 3.573,-0.378 4.829,-2.084 0.848,-1.152 1.186,-2.589 0.927,-3.943 -0.464,-2.432 -2.303,-4.36 -4.685,-4.912 -2.564,-0.593 -5.203,0.53 -7.059999,3.003 -1.319,1.756 -1.825,3.86 -1.426,5.923 0.042,0.217 0.092,0.431 0.148,0.643 0.74,2.777 2.752999,4.886 5.521999,5.784 2.866,0.931 5.968,0.355 8.298,-1.541 l 0.209,-0.17 c 1.658,-1.273 3.492,-3.521 4.887,-6.001 3.542,-6.392 8.678,-6.235 8.729,-6.238 l 0.048,0.002 0.049,-0.004 c 0.882,-0.068 1.742,0.209 2.422,0.789 0.698,0.596 1.123,1.435 1.195,2.362 0.111,1.412 -0.924,2.662 -2.305,2.785 -0.49,0.049 -1.009,-0.152 -1.392,-0.526 -0.573,-0.561 -0.779,-1.223 -0.564,-1.816 0.181,-0.502 0.634,-0.853 1.153,-0.895 l -0.125,-1.558 c -1.128,0.091 -2.109,0.845 -2.498,1.921 -0.425,1.179 -0.073,2.474 0.943,3.466 0.704,0.687 1.681,1.051 2.622,0.965 2.229,-0.199 3.9,-2.201 3.724,-4.463 -0.105,-1.344 -0.722,-2.562 -1.739,-3.43 -0.895,-0.763 -2.006,-1.173 -3.164,-1.173"
         style="fill:#a96821;fill-opacity:1;fill-rule:nonzero;stroke:none;stroke-width:0.1"
         id="path19024" />
      <path
         d="m -66.245181,870.54748 c -1.159,0 -2.269,0.409 -3.164,1.173 -1.017,0.868 -1.635,2.086 -1.74,3.43 -0.176,2.261 1.495,4.264 3.725,4.463 0.935,0.085 1.917,-0.277 2.622,-0.965 1.016,-0.992 1.368,-2.287 0.942,-3.465 -0.388,-1.077 -1.369,-1.831 -2.497,-1.922 l -0.126,1.558 c 0.52,0.042 0.973,0.393 1.154,0.895 0.215,0.593 0.008,1.255 -0.566,1.816 -0.381,0.373 -0.899,0.57 -1.39,0.526 -1.382,-0.124 -2.416,-1.373 -2.306,-2.785 0.073,-0.927 0.497,-1.766 1.196,-2.362 0.679,-0.58 1.539,-0.86 2.422,-0.789 l 0.049,0.004 0.049,-0.002 c 0.208,10e-4 5.211,-0.109 8.725,6.234 1.398,2.484 3.232,4.732 4.908,6.019 l 0.19,0.155 c 2.33,1.896 5.433,2.472 8.299,1.542 2.769,-0.898 4.781,-3.007 5.521,-5.785 0.057,-0.211 0.106,-0.424 0.148,-0.642 0.4,-2.063 -0.107,-4.166 -1.425,-5.923 -1.858,-2.474 -4.497,-3.597 -7.062,-3.003 -2.38,0.552 -4.218,2.48 -4.684,4.912 -0.258,1.354 0.08,2.792 0.928,3.943 1.256,1.707 3.063,2.483 4.828,2.084 1.642,-0.373 2.91,-1.695 3.23,-3.371 0.369,-1.938 -0.886,-3.821 -2.8,-4.198 l -0.302,1.532 c 1.073,0.212 1.776,1.277 1.567,2.374 -0.203,1.064 -1.004,1.904 -2.04,2.139 -1.158,0.263 -2.335,-0.278 -3.226,-1.486 -0.59,-0.803 -0.828,-1.795 -0.65,-2.724 0.349,-1.825 1.724,-3.27 3.503,-3.682 1.972,-0.458 3.961,0.424 5.458,2.418 1.051,1.4 1.456,3.064 1.142,4.687 -0.036,0.183 -0.078,0.362 -0.124,0.539 -0.601,2.255 -2.24,3.968 -4.495,4.7 -2.361,0.767 -4.913,0.292 -6.83,-1.268 l -0.208,-0.169 c -1.511,-1.161 -3.234,-3.284 -4.511,-5.555 -3.849,-6.946 -9.458,-7.055 -10.107,-7.034 -0.118,-0.008 -0.236,-0.013 -0.353,-0.013"
         style="fill:#a96821;fill-opacity:1;fill-rule:nonzero;stroke:none;stroke-width:0.1"
         id="path19026" />
      <path
         d="m -71.330181,881.64848 c 0.118,-0.611 0.569,-0.829 0.95,-0.829 0.381,0 0.831,0.218 0.95,0.828 0.271,1.402 -0.393,3.178 -0.95,4.346 -0.557,-1.168 -1.222,-2.944 -0.95,-4.346 z m 0.95,-2.391 c -1.243,0 -2.241,0.841 -2.484,2.093 v 0.001 c -0.559,2.885 1.726,6.554 1.823,6.709 l 0.661,1.048 0.661,-1.048 c 0.098,-0.155 2.382,-3.824 1.822,-6.71 -0.242,-1.252 -1.24,-2.093 -2.483,-2.093"
         style="fill:#a96821;fill-opacity:1;fill-rule:nonzero;stroke:none;stroke-width:0.1"
         id="path19028" />
      <path
         d="m 141.26582,880.83248 c -0.596,-0.12 -0.809,-0.585 -0.809,-0.98 0,-0.395 0.213,-0.86 0.809,-0.98 1.31,-0.26 3.062,0.379 4.288,0.98 -1.226,0.602 -2.977,1.242 -4.288,0.98 z m 0.648,-3.582 c -0.324,0 -0.644,0.028 -0.954,0.091 -1.236,0.247 -2.066,1.256 -2.066,2.511 0,1.255 0.83,2.264 2.066,2.512 2.85,0.574 6.469,-1.757 6.623,-1.857 l 1.005,-0.655 -1.005,-0.654 c -0.137,-0.089 -3.025,-1.948 -5.669,-1.948"
         style="fill:#a96821;fill-opacity:1;fill-rule:nonzero;stroke:none;stroke-width:0.1"
         id="path19030" />
      <path
         d="m 136.42682,882.79348 c -0.119,0 -0.252,-0.057 -0.35,-0.152 -0.172,-0.168 -0.238,-0.341 -0.186,-0.486 0.03,-0.08 0.108,-0.176 0.235,-0.186 l -0.109,-1.343 c 0.283,0.01 0.552,0.115 0.772,0.302 0.266,0.228 0.428,0.549 0.455,0.903 0.039,0.488 -0.315,0.918 -0.787,0.961 z m -0.451,-3.73 -0.188,0.006 h -0.011 c -0.489,0 -3.376,0.155 -5.338,3.697 -0.608,1.079 -1.424,2.088 -2.126,2.627 l -0.121,0.098 c -0.847,0.69 -1.978,0.898 -3.019,0.56 -0.991,-0.322 -1.709,-1.072 -1.973,-2.061 l -0.055,-0.239 c -0.134,-0.697 0.04,-1.413 0.494,-2.017 0.646,-0.859 1.486,-1.244 2.306,-1.054 0.732,0.17 1.298,0.766 1.442,1.519 0.067,0.354 -0.025,0.734 -0.254,1.045 -0.35,0.475 -0.775,0.684 -1.197,0.588 -0.362,-0.083 -0.641,-0.378 -0.713,-0.752 -0.063,-0.334 0.146,-0.655 0.467,-0.719 l -0.302,-1.533 c -1.161,0.228 -1.923,1.37 -1.701,2.544 0.189,0.986 0.936,1.764 1.904,1.983 1.036,0.235 2.082,-0.208 2.8,-1.184 0.487,-0.66 0.679,-1.486 0.531,-2.265 -0.26,-1.36 -1.29,-2.439 -2.624,-2.748 -1.431,-0.33 -2.89,0.282 -3.908,1.638 -0.712,0.948 -0.996,2.133 -0.78,3.251 0.023,0.116 0.05,0.233 0.08,0.347 0.397,1.487 1.518,2.662 3,3.143 1.55,0.503 3.228,0.191 4.489,-0.834 l 0.104,-0.085 c 0.854,-0.655 1.802,-1.816 2.52,-3.09 1.106,-1.996 2.514,-2.618 3.326,-2.811 -0.32,0.215 -0.571,0.53 -0.707,0.907 -0.265,0.734 -0.054,1.532 0.563,2.135 0.43,0.42 1.031,0.642 1.611,0.589 1.321,-0.118 2.311,-1.301 2.207,-2.638 -0.061,-0.771 -0.415,-1.471 -1,-1.97 -0.517,-0.441 -1.158,-0.677 -1.827,-0.677"
         style="fill:#a96821;fill-opacity:1;fill-rule:nonzero;stroke:none;stroke-width:0.1"
         id="path19032" />
      <path
         d="m 136.01682,879.06748 0.109,-1.343 c -0.127,-0.01 -0.205,-0.106 -0.235,-0.185 -0.052,-0.146 0.014,-0.319 0.186,-0.487 0.105,-0.103 0.257,-0.161 0.381,-0.15 0.471,0.041 0.825,0.472 0.786,0.96 -0.027,0.355 -0.189,0.675 -0.455,0.903 -0.22,0.187 -0.489,0.292 -0.772,0.302 z m -9.842,-7.147 c -0.496,0 -0.997,0.078 -1.486,0.236 -1.481,0.481 -2.602,1.657 -2.999,3.145 -0.03,0.113 -0.057,0.229 -0.08,0.347 -0.216,1.116 0.068,2.301 0.78,3.249 1.019,1.356 2.479,1.968 3.908,1.638 1.334,-0.309 2.363,-1.388 2.624,-2.748 0.148,-0.779 -0.044,-1.605 -0.531,-2.264 -0.718,-0.976 -1.766,-1.42 -2.8,-1.185 -0.968,0.219 -1.715,0.998 -1.904,1.983 -0.222,1.174 0.54,2.315 1.701,2.544 l 0.302,-1.533 c -0.321,-0.063 -0.53,-0.385 -0.467,-0.718 0.072,-0.375 0.351,-0.67 0.713,-0.752 0.424,-0.096 0.848,0.113 1.197,0.587 0.229,0.311 0.321,0.691 0.254,1.045 -0.144,0.753 -0.71,1.349 -1.442,1.518 -0.82,0.19 -1.66,-0.194 -2.306,-1.053 -0.454,-0.604 -0.628,-1.32 -0.494,-2.015 l 0.054,-0.24 c 0.265,-0.989 0.982,-1.74 1.973,-2.062 1.043,-0.338 2.173,-0.129 3.021,0.56 l 0.103,0.084 c 0.719,0.554 1.535,1.562 2.145,2.646 1.973,3.561 4.878,3.665 5.347,3.692 0.734,0.053 1.45,-0.188 2.015,-0.671 0.585,-0.498 0.939,-1.198 1,-1.97 0.104,-1.337 -0.886,-2.52 -2.207,-2.638 -0.58,-0.054 -1.18,0.168 -1.611,0.589 -0.617,0.603 -0.828,1.402 -0.563,2.136 0.136,0.377 0.389,0.692 0.709,0.907 -0.808,-0.191 -2.219,-0.81 -3.326,-2.807 -0.72,-1.28 -1.668,-2.44 -2.541,-3.109 l -0.085,-0.07 c -0.864,-0.703 -1.924,-1.071 -3.004,-1.071"
         style="fill:#a96821;fill-opacity:1;fill-rule:nonzero;stroke:none;stroke-width:0.1"
         id="path19034" />
      <path
         d="M 125.29982,879.06548 H -38.822181 v 1.563 H 125.29982 v -1.563"
         style="fill:#a96821;fill-opacity:1;fill-rule:nonzero;stroke:none;stroke-width:0.1"
         id="path19036" />
      <path
         d="m -286.40518,879.85348 c 1.227,-0.602 2.981,-1.241 4.289,-0.981 0.597,0.12 0.81,0.585 0.81,0.98 0,0.395 -0.213,0.86 -0.81,0.98 -1.315,0.262 -3.065,-0.377 -4.289,-0.979 z m 3.642,-2.603 c -2.645,0 -5.533,1.859 -5.669,1.948 l -1.006,0.654 1.006,0.655 c 0.153,0.1 3.765,2.431 6.623,1.857 1.236,-0.248 2.065,-1.257 2.065,-2.512 0,-1.255 -0.829,-2.264 -2.065,-2.511 -0.31,-0.063 -0.631,-0.091 -0.954,-0.091"
         style="fill:#a96821;fill-opacity:1;fill-rule:nonzero;stroke:none;stroke-width:0.1"
         id="path19038" />
      <path
         d="m -277.27718,882.79348 -0.03,-0.001 c -0.472,-0.043 -0.825,-0.473 -0.787,-0.96 0.027,-0.355 0.19,-0.676 0.457,-0.905 0.219,-0.187 0.488,-0.291 0.77,-0.301 l -0.108,1.343 c 0.127,0.01 0.206,0.106 0.234,0.186 0.052,0.145 -0.013,0.318 -0.185,0.485 -0.097,0.096 -0.232,0.153 -0.351,0.153 z m 0.451,-3.73 c -0.668,0 -1.309,0.236 -1.826,0.676 -0.585,0.499 -0.94,1.199 -1,1.971 -0.105,1.336 0.885,2.52 2.206,2.638 0.58,0.045 1.181,-0.169 1.611,-0.589 0.618,-0.603 0.828,-1.402 0.563,-2.135 -0.136,-0.378 -0.388,-0.693 -0.708,-0.908 0.808,0.192 2.219,0.811 3.325,2.807 0.72,1.279 1.669,2.44 2.541,3.109 l 0.085,0.07 c 1.261,1.027 2.938,1.338 4.49,0.835 1.481,-0.481 2.603,-1.656 3,-3.144 0.03,-0.114 0.056,-0.228 0.079,-0.344 0.217,-1.12 -0.067,-2.305 -0.779,-3.253 -1.019,-1.357 -2.479,-1.968 -3.909,-1.638 -1.333,0.31 -2.363,1.388 -2.623,2.748 -0.149,0.78 0.045,1.605 0.53,2.265 0.72,0.976 1.768,1.418 2.801,1.184 0.969,-0.219 1.715,-0.998 1.903,-1.983 0.223,-1.174 -0.539,-2.316 -1.7,-2.544 l -0.302,1.533 c 0.321,0.064 0.53,0.385 0.466,0.718 -0.071,0.375 -0.351,0.67 -0.713,0.753 -0.424,0.096 -0.847,-0.113 -1.197,-0.588 -0.228,-0.31 -0.32,-0.691 -0.253,-1.045 0.144,-0.753 0.709,-1.349 1.441,-1.519 0.82,-0.188 1.661,0.194 2.307,1.054 0.453,0.604 0.629,1.32 0.494,2.015 l -0.056,0.243 c -0.262,0.987 -0.981,1.737 -1.972,2.059 -1.044,0.339 -2.173,0.129 -3.02,-0.561 l -0.103,-0.083 c -0.72,-0.553 -1.535,-1.562 -2.146,-2.646 -1.972,-3.561 -4.855,-3.707 -5.346,-3.692 l -0.189,-0.006"
         style="fill:#a96821;fill-opacity:1;fill-rule:nonzero;stroke:none;stroke-width:0.1"
         id="path19040" />
      <path
         d="m -276.86718,879.06748 c -0.282,-0.01 -0.551,-0.114 -0.77,-0.302 -0.267,-0.228 -0.43,-0.548 -0.457,-0.903 -0.038,-0.488 0.315,-0.919 0.787,-0.96 0.122,-0.014 0.276,0.047 0.382,0.15 0.171,0.168 0.236,0.341 0.184,0.487 -0.029,0.079 -0.107,0.175 -0.234,0.185 z m 9.843,-7.147 c -1.081,0 -2.14,0.367 -3.004,1.07 l -0.105,0.085 c -0.853,0.655 -1.802,1.815 -2.52,3.09 -1.105,1.996 -2.513,2.618 -3.325,2.811 0.319,-0.215 0.571,-0.529 0.706,-0.906 0.266,-0.734 0.055,-1.532 -0.562,-2.136 -0.432,-0.421 -1.037,-0.641 -1.612,-0.589 -1.321,0.118 -2.311,1.301 -2.206,2.639 0.06,0.771 0.415,1.471 1,1.97 0.565,0.482 1.278,0.72 2.015,0.67 h 0.01 c 0.49,0 3.376,-0.155 5.339,-3.697 0.608,-1.079 1.423,-2.087 2.125,-2.626 l 0.122,-0.099 c 0.846,-0.688 1.975,-0.9 3.02,-0.56 0.99,0.322 1.709,1.073 1.972,2.061 l 0.055,0.242 c 0.135,0.694 -0.041,1.41 -0.494,2.014 -0.646,0.859 -1.485,1.246 -2.308,1.053 -0.731,-0.169 -1.296,-0.765 -1.44,-1.518 -0.067,-0.354 0.025,-0.734 0.253,-1.045 0.35,-0.475 0.773,-0.683 1.197,-0.587 0.362,0.082 0.642,0.377 0.713,0.752 0.064,0.333 -0.145,0.655 -0.467,0.718 l 0.303,1.533 c 1.161,-0.229 1.923,-1.371 1.699,-2.544 -0.187,-0.985 -0.933,-1.763 -1.902,-1.983 -1.033,-0.235 -2.081,0.208 -2.801,1.185 -0.485,0.659 -0.679,1.484 -0.53,2.264 0.26,1.36 1.29,2.439 2.623,2.748 1.429,0.33 2.89,-0.281 3.909,-1.638 0.712,-0.948 0.996,-2.133 0.779,-3.251 -0.023,-0.117 -0.049,-0.232 -0.079,-0.344 -0.397,-1.489 -1.518,-2.665 -3,-3.146 -0.489,-0.158 -0.989,-0.236 -1.485,-0.236"
         style="fill:#a96821;fill-opacity:1;fill-rule:nonzero;stroke:none;stroke-width:0.1"
         id="path19042" />
      <path
         d="m -102.02718,879.06548 h -164.122 v 1.563 h 164.122 v -1.563"
         style="fill:#a96821;fill-opacity:1;fill-rule:nonzero;stroke:none;stroke-width:0.1"
         id="path19044" />
    </g>
  </g>
</svg>
