<?xml version="1.0" encoding="UTF-8" standalone="no"?>
<!-- Created with Inkscape (http://www.inkscape.org/) -->

<svg
   width="800"
   height="50"
   viewBox="0 0 211.664 13.229"
   version="1.1"
   id="svg30434"
   inkscape:version="1.1.2 (0a00cf5339, 2022-02-04)"
   sodipodi:docname="separator_1.svg"
   xmlns:inkscape="http://www.inkscape.org/namespaces/inkscape"
   xmlns:sodipodi="http://sodipodi.sourceforge.net/DTD/sodipodi-0.dtd"
   xmlns="http://www.w3.org/2000/svg"
   xmlns:svg="http://www.w3.org/2000/svg">
  <sodipodi:namedview
     id="namedview30436"
     pagecolor="#ffffff"
     bordercolor="#cccccc"
     borderopacity="1"
     inkscape:pageshadow="0"
     inkscape:pageopacity="1"
     inkscape:pagecheckerboard="0"
     inkscape:document-units="px"
     showgrid="false"
     units="px"
     inkscape:zoom="1.9480792"
     inkscape:cx="418.10416"
     inkscape:cy="13.34648"
     inkscape:window-width="1366"
     inkscape:window-height="714"
     inkscape:window-x="0"
     inkscape:window-y="22"
     inkscape:window-maximized="1"
     inkscape:current-layer="layer1" />
  <defs
     id="defs30431" />
  <g
     inkscape:label="Layer 1"
     inkscape:groupmode="layer"
     id="layer1">
    <g
       id="g1917"
       transform="matrix(1.0069684,0,0,-0.58237964,-261.15974,260.5317)"
       style="fill:#a96821;fill-opacity:1">
      <g
         id="g474"
         transform="translate(329.359,437.8596)"
         style="fill:#a96821;fill-opacity:1">
        <path
           d="m 0,0 c -2.667,-0.065 -6.657,-0.396 -11.807,-0.944 -5.138,-0.551 -11.404,-1.354 -18.623,-2.601 -2.192,-0.376 -4.385,-0.801 -6.625,-1.252 -2.243,-0.439 -4.564,-0.853 -6.937,-0.877 -2.365,-0.043 -4.794,0.372 -6.926,1.421 -1.066,0.522 -2.06,1.224 -2.856,2.123 -0.381,0.475 -0.745,0.906 -0.989,1.558 -0.216,0.621 -0.235,1.268 -0.12,1.873 0.118,0.605 0.369,1.186 0.786,1.666 0.402,0.483 1.057,0.83 1.719,0.798 0.644,-0.035 1.25,-0.274 1.68,-0.793 0.438,-0.534 0.42,-1.238 0.293,-1.778 -0.292,-1.112 -0.976,-1.986 -1.782,-2.664 -0.825,-0.631 -1.661,-1.157 -2.514,-1.643 -3.417,-1.928 -6.952,-2.87 -10.057,-3.23 3.072,0.416 6.593,1.462 9.927,3.52 0.825,0.513 1.659,1.089 2.419,1.73 0.713,0.663 1.31,1.557 1.474,2.515 0.085,0.476 -0.025,0.945 -0.335,1.236 -0.302,0.292 -0.828,0.448 -1.248,0.389 -0.884,-0.118 -1.481,-1.135 -1.528,-2.102 -0.032,-0.487 0.057,-0.981 0.278,-1.381 0.239,-0.407 0.591,-0.841 0.974,-1.188 0.765,-0.722 1.719,-1.262 2.733,-1.65 2.045,-0.79 4.3,-0.954 6.532,-0.722 2.24,0.222 4.462,0.808 6.701,1.418 2.248,0.619 4.509,1.218 6.742,1.773 6.205,1.547 11.763,2.607 16.507,3.361 4.746,0.743 8.67,1.222 11.729,1.432 1.801,0.135 3.688,0.203 5.638,0.147 3.861,-0.117 7.591,-0.756 10.838,-2.04 3.225,-1.29 5.855,-3.126 7.633,-5.112 1.806,-1.964 2.722,-4.029 3.014,-5.488 0.277,-1.483 0.059,-2.32 -0.192,-2.371 -0.307,-0.067 -0.628,0.624 -1.281,1.702 -0.65,1.079 -1.74,2.513 -3.438,3.92 -1.699,1.4 -4.033,2.745 -6.827,3.682 -2.776,0.929 -6.095,1.428 -9.621,1.555 C 2.588,0.028 1.287,0.029 0,0"
           style="fill:#a96821;fill-opacity:1;fill-rule:nonzero;stroke:none"
           id="path476" />
      </g>
      <g
         id="g478"
         transform="translate(365.9528,440.3327)"
         style="fill:#a96821;fill-opacity:1">
        <path
           d="m 0,0 c -0.033,-0.842 -0.175,-2.476 -0.736,-4.721 -0.68,-2.721 -1.145,-5.721 -1.273,-7.629 -0.116,1.893 -0.63,4.975 -1.338,7.767 -0.491,1.937 -0.667,3.42 -0.727,4.33 -0.029,0.269 -0.044,0.547 -0.044,0.832 -0.003,2.257 0.922,4.096 2.066,4.108 C -0.907,4.698 0.022,2.877 0.025,0.62 0.026,0.409 0.016,0.203 0,0"
           style="fill:#a96821;fill-opacity:1;fill-rule:nonzero;stroke:none"
           id="path480" />
      </g>
      <g
         id="g482"
         transform="translate(358.4821,438.1486)"
         style="fill:#a96821;fill-opacity:1">
        <path
           d="m 0,0 c 0.343,-0.639 0.943,-1.919 1.453,-3.866 0.619,-2.36 1.545,-4.815 2.277,-6.291 -0.935,1.34 -2.737,3.353 -4.579,5.053 -1.277,1.179 -2.083,2.186 -2.537,2.827 -0.143,0.183 -0.279,0.381 -0.405,0.591 -1,1.667 -1.018,3.501 -0.041,4.097 0.978,0.595 2.58,-0.273 3.58,-1.94 C -0.158,0.315 -0.076,0.158 0,0"
           style="fill:#a96821;fill-opacity:1;fill-rule:nonzero;stroke:none"
           id="path484" />
      </g>
      <g
         id="g486"
         transform="translate(322.2555,434.5007)"
         style="fill:#a96821;fill-opacity:1">
        <path
           d="m 0,0 c 0.968,0.349 2.41,0.841 4.335,1.23 1.927,0.371 4.315,0.699 7.108,0.459 3.353,-0.279 6.759,-1.182 9.594,-2.653 2.857,-1.446 4.987,-3.572 6.117,-5.497 -1.225,1.858 -3.586,3.743 -6.544,4.727 -2.939,1.02 -6.355,1.262 -9.424,0.807 C 6.928,-1.595 3.869,-2.872 1.995,-3.602 1.434,-3.84 0.869,-4.08 0.289,-4.326 c -4.615,-1.975 -8.68,-3.511 -9.311,-2.51 -0.598,0.923 2.529,4.091 7.611,6.29 C -0.942,-0.338 -0.465,-0.171 0,0"
           style="fill:#a96821;fill-opacity:1;fill-rule:nonzero;stroke:none"
           id="path488" />
      </g>
      <g
         id="g490"
         transform="translate(399.6852,442.4367)"
         style="fill:#a96821;fill-opacity:1">
        <path
           d="m 0,0 c 2.854,-0.105 6.953,-0.539 12.138,-1.313 5.192,-0.778 11.504,-1.946 18.688,-3.758 2.173,-0.547 4.383,-1.143 6.562,-1.741 2.175,-0.583 4.344,-1.112 6.525,-1.269 2.171,-0.174 4.359,0.078 6.317,0.905 0.974,0.409 1.867,0.977 2.583,1.702 0.333,0.363 0.697,0.793 0.85,1.172 0.169,0.409 0.215,0.892 0.15,1.357 -0.118,0.917 -0.737,1.855 -1.583,1.841 -0.409,0.006 -0.882,-0.167 -1.132,-0.457 -0.274,-0.283 -0.305,-0.752 -0.221,-1.202 0.191,-0.917 0.783,-1.779 1.486,-2.411 0.751,-0.624 1.573,-1.19 2.387,-1.694 3.29,-2.022 6.781,-3.07 9.868,-3.491 -3.071,0.359 -6.614,1.292 -10.058,3.237 -0.861,0.492 -1.706,1.023 -2.535,1.664 -0.795,0.688 -1.476,1.58 -1.729,2.705 -0.129,0.547 -0.041,1.251 0.423,1.727 0.46,0.459 1.067,0.67 1.719,0.631 0.659,-0.051 1.244,-0.456 1.611,-0.955 0.379,-0.502 0.591,-1.099 0.667,-1.715 0.072,-0.616 0.003,-1.271 -0.285,-1.873 -0.298,-0.577 -0.651,-1.042 -1.077,-1.484 -0.837,-0.882 -1.878,-1.547 -2.976,-2.043 -2.2,-1.005 -4.695,-1.332 -7.102,-1.236 -2.421,0.084 -4.783,0.547 -7.073,1 -2.283,0.458 -4.546,0.882 -6.794,1.26 -6.234,1.051 -11.762,1.767 -16.463,2.288 -4.703,0.51 -8.587,0.864 -11.481,1.002 -1.716,0.073 -3.481,0.106 -5.272,0.053 -3.53,-0.106 -6.858,-0.587 -9.661,-1.491 -2.809,-0.916 -5.191,-2.233 -6.909,-3.644 -1.745,-1.394 -2.841,-2.854 -3.527,-3.945 -0.667,-1.1 -1.002,-1.82 -1.313,-1.79 -0.143,0.012 -0.245,0.209 -0.302,0.592 -0.075,0.388 -0.046,0.945 0.071,1.673 0.25,1.439 1.146,3.47 2.899,5.451 1.748,1.974 4.329,3.848 7.53,5.162 3.225,1.319 6.944,1.98 10.808,2.124 C -2.768,0.084 -1.367,0.063 0,0"
           style="fill:#a96821;fill-opacity:1;fill-rule:nonzero;stroke:none"
           id="path492" />
      </g>
      <g
         id="g494"
         transform="translate(373.9274,436.5353)"
         style="fill:#a96821;fill-opacity:1">
        <path
           d="m 0,0 c -0.4,-0.605 -1.244,-1.74 -2.718,-3.111 -1.786,-1.662 -3.51,-3.64 -4.463,-4.984 0.738,1.458 1.658,3.999 2.283,6.425 0.434,1.684 0.939,2.87 1.289,3.573 0.093,0.214 0.204,0.427 0.33,0.638 0.994,1.669 2.6,2.554 3.588,1.975 C 1.296,3.937 1.29,2.114 0.295,0.444 0.202,0.289 0.103,0.142 0,0"
           style="fill:#a96821;fill-opacity:1;fill-rule:nonzero;stroke:none"
           id="path496" />
      </g>
      <g
         id="g498"
         transform="translate(405.1647,431.1691)"
         style="fill:#a96821;fill-opacity:1">
        <path
           d="m 0,0 c -0.869,0.346 -2.141,0.869 -3.809,1.417 -1.662,0.531 -3.745,1.156 -6.204,1.47 -2.997,0.397 -6.31,0.122 -9.175,-0.889 -2.882,-0.981 -5.193,-2.828 -6.428,-4.68 1.115,1.895 3.248,4.047 6.157,5.519 2.886,1.498 6.386,2.411 9.828,2.654 4.819,0.296 8.425,-0.788 10.52,-1.472 0.628,-0.2 1.266,-0.438 1.907,-0.708 2.542,-1.069 4.613,-2.444 5.971,-3.628 1.356,-1.19 2.015,-2.197 1.736,-2.692 C 9.917,-4.037 5.884,-2.524 1.27,-0.543 0.839,-0.359 0.419,-0.179 0,0"
           style="fill:#a96821;fill-opacity:1;fill-rule:nonzero;stroke:none"
           id="path500" />
      </g>
    </g>
  </g>
</svg>
