<?xml version="1.0" encoding="UTF-8" standalone="no"?>
<!-- Created with Inkscape (http://www.inkscape.org/) -->

<svg
   width="800"
   height="50"
   viewBox="0 0 211.664 13.229"
   version="1.1"
   id="svg30434"
   inkscape:version="1.1.2 (0a00cf5339, 2022-02-04)"
   sodipodi:docname="top_0.svg"
   xmlns:inkscape="http://www.inkscape.org/namespaces/inkscape"
   xmlns:sodipodi="http://sodipodi.sourceforge.net/DTD/sodipodi-0.dtd"
   xmlns="http://www.w3.org/2000/svg"
   xmlns:svg="http://www.w3.org/2000/svg">
  <sodipodi:namedview
     id="namedview30436"
     pagecolor="#ffffff"
     bordercolor="#cccccc"
     borderopacity="1"
     inkscape:pageshadow="0"
     inkscape:pageopacity="1"
     inkscape:pagecheckerboard="0"
     inkscape:document-units="px"
     showgrid="false"
     units="px"
     inkscape:zoom="0.94786756"
     inkscape:cx="385.60239"
     inkscape:cy="245.81493"
     inkscape:window-width="1366"
     inkscape:window-height="714"
     inkscape:window-x="0"
     inkscape:window-y="22"
     inkscape:window-maximized="1"
     inkscape:current-layer="layer1" />
  <defs
     id="defs30431" />
  <g
     inkscape:label="Layer 1"
     inkscape:groupmode="layer"
     id="layer1">
    <g
       id="g30395"
       transform="matrix(0.41160875,0,0,-0.41160875,-264.2905,71.548464)"
       style="fill:#a96821;fill-opacity:1">
      <path
         d="m 932.482,153.84 c -3.531,-2.683 -7.801,-0.247 -10.299,1.722 -2.611,2.058 -5.705,3.296 -8.905,3.406 -11.457,0.393 -12.791,-12.536 -12.791,-12.536 0,0 7.33,12.237 15.998,7.989 0,0 6.043,-2.615 7.103,-10.458 0,0 1.907,3.703 -0.443,7.244 2.204,-1.035 5.828,-2.016 9.337,2.633"
         style="fill:#a96821;fill-opacity:1;fill-rule:nonzero;stroke:none;stroke-width:0.1"
         id="path19422" />
      <path
         d="m 863.549,153.84 c 3.531,-2.683 7.802,-0.247 10.3,1.722 2.61,2.058 5.705,3.296 8.904,3.406 11.457,0.393 12.791,-12.536 12.791,-12.536 0,0 -7.33,12.237 -15.998,7.989 0,0 -6.043,-2.615 -7.103,-10.458 0,0 -1.907,3.703 0.444,7.244 -2.204,-1.035 -5.828,-2.016 -9.338,2.633"
         style="fill:#a96821;fill-opacity:1;fill-rule:nonzero;stroke:none;stroke-width:0.1"
         id="path19424" />
      <path
         d="m 908.761,161.727 c -4.049,0.778 -7.741,-4.217 -10.004,-8.24 -0.271,-0.486 -0.52,-0.957 -0.747,-1.394 -0.217,0.437 -0.466,0.908 -0.737,1.378 -2.262,4.022 -5.954,9.034 -10.002,8.256 3.161,4.898 8.076,2.352 10.739,-5.628 2.674,7.98 7.589,10.526 10.751,5.628"
         style="fill:#a96821;fill-opacity:1;fill-rule:nonzero;stroke:none;stroke-width:0.1"
         id="path19426" />
      <path
         d="m 896.443,166.545 c -0.464,2.439 1.573,5.73 1.573,5.73 0,0 2.036,-3.291 1.572,-5.73 -0.346,-1.816 -2.799,-1.816 -3.145,0"
         style="fill:#a96821;fill-opacity:1;fill-rule:nonzero;stroke:none;stroke-width:0.1"
         id="path19428" />
      <path
         d="m 932.571,146.131 c 23.104,-3.266 47.022,-3.595 70.249,-1.845 9.42,0.71 18.82,1.859 28.11,3.615 9.9,1.872 19.35,4.781 28.92,7.856 16.31,5.238 33.63,9.097 50.86,8.347 5.89,-0.256 12.97,-0.75 18.32,-3.569 0.86,-0.453 1.63,0.852 0.77,1.306 -4.14,2.181 -9.3,2.878 -13.87,3.38 -14.79,1.626 -29.96,-0.791 -44.26,-4.467 -10.24,-2.632 -20.1,-6.498 -30.36,-9.047 -9.61,-2.388 -19.41,-3.997 -29.26,-5.063 -17.224,-1.867 -34.62,-2.143 -51.92,-1.34 -9.003,0.417 -18.369,1.042 -27.156,2.284 -0.953,0.135 -1.364,-1.321 -0.403,-1.457"
         style="fill:#a96821;fill-opacity:1;fill-rule:nonzero;stroke:none;stroke-width:0.1"
         id="path19430" />
      <path
         d="m 865.446,147.536 c -23.518,-3.324 -48.368,-3.586 -72.137,-1.608 -9.83,0.818 -19.629,2.131 -29.288,4.149 -10.105,2.113 -19.697,5.539 -29.563,8.483 -15.462,4.614 -31.868,7.901 -48.084,6.935 -5.767,-0.343 -12.517,-0.949 -17.75,-3.706 -0.861,-0.454 -0.099,-1.759 0.763,-1.306 4.265,2.247 9.77,2.883 14.475,3.312 15.684,1.432 31.651,-1.467 46.703,-5.683 10.049,-2.814 19.774,-6.517 29.971,-8.822 9.274,-2.096 18.696,-3.508 28.153,-4.451 17.039,-1.701 34.228,-1.884 51.321,-1.016 8.621,0.439 17.286,1.047 25.839,2.256 0.959,0.135 0.55,1.592 -0.403,1.457"
         style="fill:#a96821;fill-opacity:1;fill-rule:nonzero;stroke:none;stroke-width:0.1"
         id="path19432" />
      <path
         d="m 655.568,170.536 c -0.783,-4.025 4.242,-7.696 8.287,-9.946 0.49,-0.269 0.962,-0.517 1.403,-0.742 -0.441,-0.216 -0.913,-0.463 -1.387,-0.733 -4.045,-2.25 -9.086,-5.921 -8.303,-9.946 -4.926,3.143 -2.366,8.03 5.661,10.679 -8.027,2.658 -10.587,7.545 -5.661,10.688"
         style="fill:#a96821;fill-opacity:1;fill-rule:nonzero;stroke:none;stroke-width:0.1"
         id="path19434" />
      <path
         d="m 650.722,158.29 c -2.453,-0.462 -5.763,1.563 -5.763,1.563 0,0 3.31,2.024 5.763,1.563 1.828,-0.344 1.828,-2.782 0,-3.126"
         style="fill:#a96821;fill-opacity:1;fill-rule:nonzero;stroke:none;stroke-width:0.1"
         id="path19436" />
      <path
         d="m 1142.85,170.536 c 0.78,-4.025 -4.24,-7.696 -8.29,-9.946 -0.48,-0.269 -0.96,-0.517 -1.4,-0.742 0.44,-0.216 0.92,-0.463 1.39,-0.733 4.04,-2.25 9.08,-5.921 8.3,-9.946 4.93,3.143 2.37,8.03 -5.66,10.679 8.03,2.658 10.59,7.545 5.66,10.688"
         style="fill:#a96821;fill-opacity:1;fill-rule:nonzero;stroke:none;stroke-width:0.1"
         id="path19438" />
      <path
         d="m 1147.7,158.29 c 2.45,-0.462 5.76,1.563 5.76,1.563 0,0 -3.31,2.024 -5.76,1.563 -1.83,-0.344 -1.83,-2.782 0,-3.126"
         style="fill:#a96821;fill-opacity:1;fill-rule:nonzero;stroke:none;stroke-width:0.1"
         id="path19440" />
    </g>
  </g>
</svg>
